<svg width="102" height="160" viewBox="0 0 102 160" fill="none" xmlns="http://www.w3.org/2000/svg">
<path d="M94.4012 49.2075C94.0027 47.7275 91.9022 47.7275 91.5037 49.2075L85.6531 70.937C85.4215 71.7972 84.7497 72.469 83.8895 72.7007L62.16 78.5513C60.6799 78.9498 60.6799 81.0502 62.16 81.4487L83.8895 87.2993C84.7497 87.531 85.4214 88.2028 85.6531 89.063L91.5037 110.792C91.9022 112.273 94.0027 112.273 94.4012 110.792L100.252 89.063C100.483 88.2028 101.155 87.531 102.015 87.2993L123.745 81.4487C125.225 81.0502 125.225 78.9498 123.745 78.5513L102.015 72.7007C101.155 72.469 100.483 71.7972 100.252 70.937L94.4012 49.2075Z" fill="#06113A" stroke="#162661"/>
<path d="M39.544 91.1123C39.1455 89.6323 37.045 89.6323 36.6465 91.1123L30.7959 112.842C30.5643 113.702 29.8925 114.374 29.0323 114.605L7.30278 120.456C5.82275 120.855 5.82276 122.955 7.30278 123.354L29.0323 129.204C29.8925 129.436 30.5643 130.108 30.7959 130.968L36.6465 152.697C37.045 154.177 39.1455 154.177 39.544 152.697L45.3946 130.968C45.6263 130.108 46.298 129.436 47.1582 129.204L68.8877 123.354C70.3678 122.955 70.3678 120.855 68.8877 120.456L47.1582 114.605C46.298 114.374 45.6263 113.702 45.3946 112.842L39.544 91.1123Z" fill="#06113A" stroke="#162661"/>
<path d="M39.544 7.30273C39.1455 5.82271 37.045 5.82272 36.6465 7.30273L30.7959 29.0322C30.5643 29.8925 29.8925 30.5642 29.0323 30.7959L7.30278 36.6465C5.82275 37.045 5.82276 39.1455 7.30278 39.5439L29.0323 45.3945C29.8925 45.6262 30.5643 46.298 30.7959 47.1582L36.6465 68.8877C37.045 70.3677 39.1455 70.3677 39.544 68.8877L45.3946 47.1582C45.6263 46.298 46.298 45.6262 47.1582 45.3945L68.8877 39.5439C70.3678 39.1455 70.3678 37.045 68.8877 36.6465L47.1582 30.7959C46.298 30.5642 45.6263 29.8925 45.3946 29.0322L39.544 7.30273Z" fill="#06113A" stroke="#162661"/>
</svg>
