<svg width="28" height="28" viewBox="0 0 28 28" fill="none" xmlns="http://www.w3.org/2000/svg">
<path d="M25.2655 21.0793C25.2655 21.4933 25.1735 21.9188 24.978 22.3328C24.7825 22.7468 24.5295 23.1378 24.196 23.5058C23.6325 24.1268 23.0115 24.5753 22.31 24.8628C21.62 25.1503 20.8725 25.2998 20.0675 25.2998C18.8945 25.2998 17.641 25.0238 16.3185 24.4603C14.996 23.8968 13.6735 23.1378 12.3625 22.1833C11.04 21.2173 9.78655 20.1478 8.59055 18.9633C7.40605 17.7673 6.33655 16.5138 5.38205 15.2028C4.43905 13.8918 3.68005 12.5808 3.12805 11.2813C2.57605 9.97031 2.30005 8.7168 2.30005 7.5208C2.30005 6.7388 2.43805 5.9913 2.71405 5.3013C2.99005 4.5998 3.42705 3.9558 4.03655 3.3808C4.77255 2.6563 5.57755 2.2998 6.42855 2.2998C6.75055 2.2998 7.07255 2.3688 7.36005 2.5068C7.65905 2.6448 7.92355 2.8518 8.13055 3.1508L10.7985 6.9113C11.0055 7.1988 11.155 7.4633 11.2585 7.7163C11.362 7.9578 11.4195 8.1993 11.4195 8.4178C11.4195 8.6938 11.339 8.9698 11.178 9.2343C11.0285 9.4988 10.81 9.7748 10.534 10.0508L9.66005 10.9593C9.53355 11.0858 9.47605 11.2353 9.47605 11.4193C9.47605 11.5113 9.48755 11.5918 9.51055 11.6838C9.54505 11.7758 9.57955 11.8448 9.60255 11.9138C9.80955 12.2933 10.166 12.7878 10.672 13.3858C11.1895 13.9838 11.7415 14.5933 12.3395 15.2028C12.9605 15.8123 13.5585 16.3758 14.168 16.8933C14.766 17.3993 15.2605 17.7443 15.6515 17.9513C15.709 17.9743 15.778 18.0088 15.8585 18.0433C15.9505 18.0778 16.0425 18.0893 16.146 18.0893C16.3415 18.0893 16.491 18.0203 16.6175 17.8938L17.4915 17.0313C17.779 16.7438 18.055 16.5253 18.3195 16.3873C18.584 16.2263 18.8485 16.1458 19.136 16.1458C19.3545 16.1458 19.5845 16.1918 19.8375 16.2953C20.0905 16.3988 20.355 16.5483 20.6425 16.7438L24.449 19.4463C24.748 19.6533 24.955 19.8948 25.0815 20.1823C25.1965 20.4698 25.2655 20.7573 25.2655 21.0793Z" stroke="white" stroke-width="2.5" stroke-miterlimit="10"/>
</svg>
