<svg width="17" height="18" viewBox="0 0 17 18" fill="none" xmlns="http://www.w3.org/2000/svg">
<path fill-rule="evenodd" clip-rule="evenodd" d="M16.9198 17.3292C15.2406 17.3292 13.5573 17.3292 11.8782 17.3292C11.8699 17.3085 11.8616 17.2878 11.8492 17.2713C10.3479 15.0834 8.84658 12.8997 7.34526 10.7118C7.27082 10.6043 7.23773 10.6333 7.17156 10.7118C6.04247 12.0312 4.90925 13.3464 3.77603 14.6616C3.0109 15.5508 2.2499 16.44 1.4889 17.3333C1.00501 17.3333 0.516981 17.3333 0.0330869 17.3333C0.0330869 17.2217 0.124075 17.172 0.186113 17.1017C2.29126 14.6533 4.39641 12.2007 6.50569 9.75646C6.58013 9.66961 6.59254 9.61584 6.52223 9.51658C4.52875 6.62149 2.53941 3.7264 0.550068 0.831305C0.363955 0.558339 0.161298 0.293645 0 0.00413547C1.67915 0.00413547 3.36244 0.00413547 5.0416 0.00413547C5.05814 0.0330864 5.07055 0.0620376 5.09123 0.0909885C6.50569 2.15064 7.92428 4.21443 9.33874 6.27408C9.35942 6.30303 9.37183 6.34852 9.42146 6.35266C9.438 6.33198 9.45868 6.3113 9.47522 6.29062C11.2495 4.23097 13.0196 2.17132 14.7939 0.107532C14.8187 0.0785807 14.8725 0.0579018 14.856 0C15.3523 0 15.8486 0 16.3449 0C16.3738 0.0744452 16.3035 0.0909882 16.2704 0.128211C14.2439 2.48978 12.2173 4.84721 10.1825 7.20464C10.0915 7.30804 10.0873 7.37008 10.1659 7.48588C12.1139 10.3107 14.0536 13.1354 15.9933 15.9644C16.3076 16.4152 16.6344 16.8577 16.9198 17.3292ZM2.01416 1.12495C2.29953 1.5344 2.56836 1.9149 2.83305 2.29953C6.05488 6.90273 9.27257 11.5101 12.4903 16.1174C12.5564 16.2167 12.6267 16.258 12.7508 16.2539C13.4043 16.2456 14.0577 16.2497 14.7153 16.2497C14.7608 16.2497 14.8146 16.2621 14.8684 16.2291C14.827 16.167 14.7939 16.1133 14.7526 16.0595C12.1304 12.3083 9.50418 8.55293 6.88205 4.80172C6.05074 3.61473 5.22357 2.42774 4.39641 1.24075C4.35091 1.17872 4.31782 1.11668 4.21443 1.11668C3.49479 1.12495 2.77102 1.12495 2.01416 1.12495Z" fill="white"/>
</svg>
