<svg width="132" height="132" viewBox="0 0 132 132" fill="none" xmlns="http://www.w3.org/2000/svg">
<g filter="url(#filter0_d_26_390)">
<path d="M92 63C92 79.5685 78.5685 93 62 93C45.4315 93 32 79.5685 32 63C32 46.4315 45.4315 33 62 33C78.5685 33 92 46.4315 92 63Z" fill="#FEFEFE"/>
<path d="M62 92.5C45.7076 92.5 32.5 79.2924 32.5 63C32.5 46.7076 45.7076 33.5 62 33.5C78.2924 33.5 91.5 46.7076 91.5 63C91.5 79.2924 78.2924 92.5 62 92.5Z" stroke="#F2212E"/>
</g>
<path d="M51.4269 61.7464C51.4044 61.7774 51.3842 61.81 51.3666 61.8439L51.2995 61.9738L51.2593 62.1038C51.2441 62.1393 51.2329 62.1764 51.2257 62.2142C51.1914 62.3815 51.1914 62.5537 51.2257 62.721C51.2329 62.7589 51.2441 62.7959 51.2593 62.8315L51.2995 62.9614L51.3666 63.0914C51.3842 63.1252 51.4044 63.1578 51.4269 63.1888C51.4749 63.2618 51.5311 63.3294 51.5946 63.3902L58.3008 69.8875C58.5574 70.1004 58.8874 70.2117 59.225 70.199C59.5625 70.1864 59.8827 70.0508 60.1216 69.8194C60.3605 69.588 60.5004 69.2777 60.5134 68.9507C60.5265 68.6237 60.4117 68.3039 60.1919 68.0553L55.7793 63.7671H72.6588C73.0145 63.7671 73.3556 63.6302 73.6072 63.3865C73.8587 63.1428 74 62.8123 74 62.4676C74 62.123 73.8587 61.7925 73.6072 61.5488C73.3556 61.3051 73.0145 61.1682 72.6588 61.1682H55.7793L60.1919 56.8865C60.3323 56.77 60.4464 56.6266 60.5269 56.4654C60.6074 56.3042 60.6526 56.1286 60.6598 55.9496C60.6669 55.7707 60.6358 55.5922 60.5683 55.4254C60.5009 55.2587 60.3986 55.1072 60.2679 54.9806C60.1372 54.854 59.9809 54.7549 59.8088 54.6895C59.6367 54.6242 59.4525 54.5941 59.2677 54.601C59.083 54.6079 58.9018 54.6517 58.7354 54.7297C58.569 54.8077 58.421 54.9182 58.3008 55.0542L51.5946 61.5515C51.5315 61.6104 51.4753 61.6757 51.4269 61.7464Z" fill="#F2212E"/>
<defs>
<filter id="filter0_d_26_390" x="0" y="0" width="132" height="132" filterUnits="userSpaceOnUse" color-interpolation-filters="sRGB">
<feFlood flood-opacity="0" result="BackgroundImageFix"/>
<feColorMatrix in="SourceAlpha" type="matrix" values="0 0 0 0 0 0 0 0 0 0 0 0 0 0 0 0 0 0 127 0" result="hardAlpha"/>
<feOffset dx="4" dy="3"/>
<feGaussianBlur stdDeviation="18"/>
<feComposite in2="hardAlpha" operator="out"/>
<feColorMatrix type="matrix" values="0 0 0 0 0.836538 0 0 0 0 0.651535 0 0 0 0 0.663281 0 0 0 0.26 0"/>
<feBlend mode="normal" in2="BackgroundImageFix" result="effect1_dropShadow_26_390"/>
<feBlend mode="normal" in="SourceGraphic" in2="effect1_dropShadow_26_390" result="shape"/>
</filter>
</defs>
</svg>
