<svg width="46" height="46" viewBox="0 0 46 46" fill="none" xmlns="http://www.w3.org/2000/svg">
<path d="M36.4167 17.25C36.4167 20.0291 35.5925 22.5783 34.1742 24.7058C32.1042 27.7725 28.8267 29.9383 25.0125 30.4942C24.3609 30.6092 23.69 30.6666 23 30.6666C22.31 30.6666 21.6392 30.6092 20.9875 30.4942C17.1734 29.9383 13.8959 27.7725 11.8259 24.7058C10.4075 22.5783 9.58337 20.0291 9.58337 17.25C9.58337 9.83248 15.5825 3.83331 23 3.83331C30.4175 3.83331 36.4167 9.83248 36.4167 17.25Z" stroke="#3851B2" stroke-width="2" stroke-linecap="round" stroke-linejoin="round"/>
<path d="M40.7294 35.4009L37.5669 36.1484C36.8577 36.3209 36.3019 36.8576 36.1485 37.5667L35.4777 40.3842C35.1135 41.9176 33.1585 42.3776 32.1427 41.1701L23.0002 30.6667L13.8577 41.1892C12.8419 42.3967 10.8869 41.9367 10.5227 40.4034L9.85186 37.5859C9.67936 36.8767 9.12352 36.3209 8.43352 36.1675L5.27102 35.4201C3.81436 35.0751 3.29686 33.2542 4.35102 32.2L11.826 24.725C13.896 27.7917 17.1735 29.9576 20.9877 30.5134C21.6394 30.6284 22.3102 30.6859 23.0002 30.6859C23.6902 30.6859 24.361 30.6284 25.0127 30.5134C28.8269 29.9576 32.1044 27.7917 34.1744 24.725L41.6494 32.2C42.7035 33.235 42.186 35.0559 40.7294 35.4009Z" stroke="#3851B2" stroke-width="2" stroke-linecap="round" stroke-linejoin="round"/>
<path d="M24.1117 11.4617L25.2425 13.7233C25.3958 14.03 25.7983 14.3367 26.1625 14.3942L28.2133 14.7392C29.5167 14.95 29.8233 15.9083 28.8842 16.8475L27.2933 18.4383C27.025 18.7067 26.8717 19.2242 26.9675 19.6075L27.4275 21.5817C27.7917 23.1342 26.9675 23.7475 25.5875 22.9233L23.6708 21.7925C23.3258 21.5817 22.7508 21.5817 22.4058 21.7925L20.4892 22.9233C19.1092 23.7283 18.285 23.1342 18.6492 21.5817L19.1092 19.6075C19.1858 19.2434 19.0517 18.7067 18.7833 18.4383L17.1925 16.8475C16.2533 15.9083 16.56 14.9692 17.8633 14.7392L19.9142 14.3942C20.2592 14.3367 20.6617 14.03 20.815 13.7233L21.9458 11.4617C22.5017 10.235 23.4983 10.235 24.1117 11.4617Z" stroke="#3851B2" stroke-width="2" stroke-linecap="round" stroke-linejoin="round"/>
</svg>
