<svg width="28" height="34" viewBox="0 0 28 34" fill="none" xmlns="http://www.w3.org/2000/svg">
<path fill-rule="evenodd" clip-rule="evenodd" d="M16.2506 24.8482C18.8859 25.6804 20.8596 27.2653 22.1517 29.6789C22.7181 30.737 23.052 31.8692 23.1979 33.0594C23.2466 33.4532 23.0243 33.7144 22.6279 33.7343C22.5829 33.7369 22.5373 33.7354 22.4917 33.7354C16.543 33.7354 10.5944 33.7354 4.64518 33.7349C4.08186 33.7349 3.86882 33.5003 3.95383 32.9641C4.59192 28.9205 6.86774 26.2508 10.7219 24.9076C10.7639 24.8932 10.8069 24.8815 10.9011 24.8538C9.14356 23.655 8.25402 22.0285 8.42199 19.9176C8.53619 18.4872 9.18862 17.3007 10.3055 16.3932C12.5194 14.5942 15.7482 14.925 17.5488 17.0994C19.4088 19.346 19.141 22.959 16.2506 24.8482ZM13.5318 32.6456C16.2619 32.6456 18.9925 32.641 21.723 32.6533C22.0047 32.6548 22.0334 32.5765 21.9801 32.3332C21.0117 27.9168 16.7469 24.968 12.3135 25.6553C8.7395 26.2094 5.97462 28.7817 5.15934 32.2989C5.09328 32.5831 5.13988 32.6543 5.44202 32.6528C8.1388 32.6415 10.8351 32.6456 13.5318 32.6456ZM13.5784 16.3205C11.3262 16.3174 9.49077 18.141 9.48616 20.3856C9.48155 22.6307 11.3149 24.4764 13.5539 24.4815C15.7979 24.4871 17.6431 22.6512 17.6466 20.4102C17.6507 18.161 15.8225 16.3236 13.5784 16.3205Z" fill="#3851B2"/>
<path fill-rule="evenodd" clip-rule="evenodd" d="M13.5594 3.3975e-05C13.9297 -0.0030387 14.2098 0.202319 14.366 0.610984C14.7398 1.59168 15.1127 2.5734 15.4747 3.5587C15.5428 3.74204 15.6304 3.81168 15.8337 3.81937C16.8974 3.85982 17.961 3.90899 19.0231 3.97864C19.63 4.01858 19.97 4.48358 19.8272 5.01822C19.7718 5.22614 19.6331 5.37004 19.4718 5.49961C18.6595 6.15101 17.8525 6.8101 17.0331 7.4528C16.8646 7.58544 16.8298 7.69811 16.8892 7.90551C17.1703 8.88211 17.4243 9.8669 17.6998 10.845C17.8146 11.2501 17.7936 11.6081 17.4392 11.8851C17.1314 12.1253 16.7786 12.0997 16.3433 11.8139C15.4921 11.2563 14.6395 10.7006 13.7935 10.1352C13.6332 10.0282 13.5174 10.018 13.3495 10.1306C12.485 10.7098 11.6114 11.2747 10.7398 11.8426C10.3434 12.1007 10.0049 12.114 9.70222 11.8923C9.39649 11.668 9.30328 11.3459 9.42568 10.8901C9.69505 9.88636 9.96032 8.8816 10.2492 7.884C10.3086 7.67916 10.2584 7.57981 10.1088 7.461C9.30175 6.82086 8.50029 6.17355 7.69884 5.52675C7.30964 5.2118 7.18519 4.89685 7.31834 4.52864C7.46532 4.12203 7.79204 3.98427 8.19866 3.96583C9.21674 3.92025 10.2343 3.85624 11.2529 3.82705C11.5048 3.81937 11.5945 3.72155 11.6733 3.50698C12.0267 2.54267 12.3954 1.584 12.7626 0.624811C12.9213 0.208464 13.1902 0.00310665 13.5594 3.3975e-05ZM10.7275 10.5967C11.4454 10.0308 12.2495 9.59138 12.9941 9.06544C13.3899 8.78583 13.7581 8.80324 14.153 9.07108C14.8361 9.53454 15.5316 9.9811 16.2239 10.4307C16.291 10.4743 16.3509 10.5542 16.478 10.5224C16.2362 9.64157 16.0063 8.76995 15.7569 7.90397C15.6243 7.44512 15.7323 7.09381 16.1128 6.79884C16.7755 6.28519 17.4243 5.75413 18.0747 5.22614C18.1341 5.178 18.2452 5.15496 18.2248 5.03103C17.3721 4.9875 16.5235 4.93833 15.6744 4.90248C14.9211 4.87022 14.7824 4.77548 14.5104 4.05955C14.2078 3.2627 13.902 2.4679 13.5651 1.58656C13.223 2.48992 12.9137 3.30777 12.6033 4.12561C12.3678 4.7468 12.1834 4.87176 11.5248 4.90044C10.6491 4.93782 9.77391 4.98801 8.82446 5.03666C9.57368 5.6389 10.2502 6.20222 10.9487 6.73636C11.383 7.06769 11.5228 7.44154 11.3543 7.9767C11.1162 8.73052 10.9262 9.49971 10.7295 10.2658C10.7039 10.3657 10.5769 10.4891 10.728 10.5982C10.7198 10.5782 10.7121 10.5583 10.7039 10.5383C10.6952 10.5449 10.687 10.5506 10.6778 10.5572C10.6947 10.57 10.7111 10.5833 10.7275 10.5967Z" fill="#3851B2"/>
<path fill-rule="evenodd" clip-rule="evenodd" d="M2.27494 20.2674C2.02913 20.2439 1.84989 20.1271 1.77 19.8844C1.68858 19.637 1.77154 19.4317 1.9728 19.2888C2.15614 19.1582 2.35996 19.0558 2.55558 18.9426C3.55266 18.3649 4.55077 17.7883 5.54887 17.2111C5.60725 17.1773 5.66563 17.1415 5.72708 17.1133C6.02001 16.9766 6.32267 17.0601 6.46555 17.3146C6.61355 17.5773 6.54799 17.8835 6.2648 18.05C5.03676 18.7705 3.80155 19.4793 2.56736 20.1891C2.4803 20.2393 2.38351 20.2797 2.27494 20.2674Z" fill="#3851B2"/>
<path fill-rule="evenodd" clip-rule="evenodd" d="M25.3932 19.7256C25.3789 20.144 24.9544 20.3893 24.5759 20.1916C24.1852 19.9878 23.8108 19.7543 23.4293 19.5341C22.6166 19.0655 21.8039 18.598 20.9916 18.1284C20.6183 17.9128 20.5 17.6219 20.6603 17.3248C20.8242 17.0196 21.1545 16.9669 21.5432 17.1902C22.6888 17.8498 23.8323 18.514 24.98 19.1705C25.2089 19.3021 25.3876 19.4547 25.3932 19.7256Z" fill="#3851B2"/>
<path fill-rule="evenodd" clip-rule="evenodd" d="M25.3927 6.724C25.3784 6.9268 25.2668 7.0876 25.0783 7.19668C23.8651 7.89776 22.6535 8.60089 21.4367 9.29532C21.1422 9.46278 20.8181 9.37213 20.6675 9.113C20.5123 8.84568 20.5927 8.53585 20.8949 8.35866C22.1147 7.64631 23.3361 6.93653 24.5652 6.24108C24.9559 6.02036 25.3973 6.28461 25.3927 6.724Z" fill="#3851B2"/>
<path fill-rule="evenodd" clip-rule="evenodd" d="M6.54093 8.8263C6.5522 9.18273 6.18808 9.46491 5.84497 9.35992C5.75945 9.33381 5.67905 9.28772 5.60121 9.24316C4.43667 8.57076 3.27418 7.89426 2.10759 7.22544C1.91964 7.1179 1.77625 6.98423 1.74553 6.76556C1.71685 6.55816 1.80083 6.38558 1.96829 6.26369C2.14907 6.13157 2.35442 6.11774 2.54493 6.22682C3.79038 6.9402 5.03225 7.65818 6.27412 8.37718C6.44261 8.47448 6.51993 8.63631 6.54093 8.8263Z" fill="#3851B2"/>
<path fill-rule="evenodd" clip-rule="evenodd" d="M2.66536 13.7513C1.98528 13.7513 1.3052 13.7543 0.625115 13.7497C0.241033 13.7472 0.010074 13.5485 0.000343879 13.2289C-0.0104104 12.897 0.231815 12.6651 0.62358 12.6635C1.99552 12.6579 3.36645 12.6579 4.73839 12.6635C5.13528 12.6651 5.36931 12.8889 5.36111 13.2274C5.35241 13.549 5.12452 13.7472 4.73941 13.7497C4.04806 13.7543 3.35671 13.7513 2.66536 13.7513Z" fill="#3851B2"/>
<path fill-rule="evenodd" clip-rule="evenodd" d="M24.4483 13.7512C23.7682 13.7512 23.0881 13.7538 22.408 13.7502C22.003 13.7476 21.77 13.5448 21.7715 13.2094C21.7725 12.8729 22.006 12.6645 22.4116 12.6635C23.7713 12.6589 25.132 12.6589 26.4921 12.6635C26.8926 12.6645 27.1323 12.8806 27.1317 13.213C27.1312 13.5438 26.8931 13.7481 26.489 13.7502C25.809 13.7538 25.1289 13.7512 24.4483 13.7512Z" fill="#3851B2"/>
<path fill-rule="evenodd" clip-rule="evenodd" d="M10.7274 10.5966C10.711 10.5838 10.6947 10.57 10.6772 10.5567C10.6865 10.55 10.6947 10.5444 10.7034 10.5377C10.7116 10.5577 10.7192 10.5777 10.7274 10.5976V10.5966Z" fill="#3851B2"/>
</svg>
