<svg width="17" height="17" viewBox="0 0 17 17" fill="none" xmlns="http://www.w3.org/2000/svg">
<path d="M15.7275 12.9975C15.7275 13.2675 15.6675 13.545 15.54 13.815C15.4125 14.085 15.2475 14.34 15.03 14.58C14.6625 14.985 14.2575 15.2775 13.8 15.465C13.35 15.6525 12.8625 15.75 12.3375 15.75C11.5725 15.75 10.755 15.57 9.8925 15.2025C9.03 14.835 8.1675 14.34 7.3125 13.7175C6.45 13.0875 5.6325 12.39 4.8525 11.6175C4.08 10.8375 3.3825 10.02 2.76 9.165C2.145 8.31 1.65 7.455 1.29 6.6075C0.93 5.7525 0.75 4.935 0.75 4.155C0.75 3.645 0.84 3.1575 1.02 2.7075C1.2 2.25 1.485 1.83 1.8825 1.455C2.3625 0.9825 2.8875 0.75 3.4425 0.75C3.6525 0.75 3.8625 0.795 4.05 0.885C4.245 0.975 4.4175 1.11 4.5525 1.305L6.2925 3.7575C6.4275 3.945 6.525 4.1175 6.5925 4.2825C6.66 4.44 6.6975 4.5975 6.6975 4.74C6.6975 4.92 6.645 5.1 6.54 5.2725C6.4425 5.445 6.3 5.625 6.12 5.805L5.55 6.3975C5.4675 6.48 5.43 6.5775 5.43 6.6975C5.43 6.7575 5.4375 6.81 5.4525 6.87C5.475 6.93 5.4975 6.975 5.5125 7.02C5.6475 7.2675 5.88 7.59 6.21 7.98C6.5475 8.37 6.9075 8.7675 7.2975 9.165C7.7025 9.5625 8.0925 9.93 8.49 10.2675C8.88 10.5975 9.2025 10.8225 9.4575 10.9575C9.495 10.9725 9.54 10.995 9.5925 11.0175C9.6525 11.04 9.7125 11.0475 9.78 11.0475C9.9075 11.0475 10.005 11.0025 10.0875 10.92L10.6575 10.3575C10.845 10.17 11.025 10.0275 11.1975 9.9375C11.37 9.8325 11.5425 9.78 11.73 9.78C11.8725 9.78 12.0225 9.81 12.1875 9.8775C12.3525 9.945 12.525 10.0425 12.7125 10.17L15.195 11.9325C15.39 12.0675 15.525 12.225 15.6075 12.4125C15.6825 12.6 15.7275 12.7875 15.7275 12.9975Z" stroke="#1F1F1F" stroke-width="1.5" stroke-linecap="round" stroke-linejoin="round"/>
</svg>
