<svg width="12" height="17" viewBox="0 0 12 17" fill="none" xmlns="http://www.w3.org/2000/svg">
<path d="M5.83672 7.4025C5.76172 7.395 5.67172 7.395 5.58922 7.4025C3.80422 7.3425 2.38672 5.88 2.38672 4.08C2.38672 2.2425 3.87172 0.75 5.71672 0.75C7.55422 0.75 9.04672 2.2425 9.04672 4.08C9.03922 5.88 7.62172 7.3425 5.83672 7.4025Z" stroke="#1F1F1F" stroke-width="1.5" stroke-linecap="round" stroke-linejoin="round"/>
<path d="M2.11125 10.17C0.29625 11.385 0.29625 13.365 2.11125 14.5725C4.17375 15.9525 7.55625 15.9525 9.61875 14.5725C11.4338 13.3575 11.4338 11.3775 9.61875 10.17C7.56375 8.7975 4.18125 8.7975 2.11125 10.17Z" stroke="#1F1F1F" stroke-width="1.5" stroke-linecap="round" stroke-linejoin="round"/>
</svg>
