<svg width="350" height="256" viewBox="0 0 350 256" fill="none" xmlns="http://www.w3.org/2000/svg">
<path d="M343.946 163.209C338.15 149.357 327.02 137.798 313.65 132.108C299.724 126.182 283.734 128.34 269.065 126.355C256.326 124.631 247.134 118.654 239.527 108.03C232.238 97.8491 225.704 86.5745 213.786 81.8653C204.37 78.1444 193.664 79.1756 184.306 83.0532C167.061 90.1978 154.035 105.389 143.066 120.524C133.05 134.342 124.881 149.473 106.356 149.966C87.8189 150.46 70.1713 139.349 51.5068 142.294C26.8388 146.185 6.29553 167.763 1.9907 193.451C-2.04384 217.527 8.08028 240.878 25.473 254.597H324.426C346.341 230.167 357.842 196.42 343.946 163.209Z" fill="#FFE8E9"/>
<path d="M73.6973 254.598H74.5197C80.2308 248.002 84.7049 239.998 87.5489 231.113C92.1521 216.733 91.9581 201.641 87.0025 188.618C84.4981 182.037 80.8817 175.903 77.3844 169.971C73.8372 163.955 70.1699 157.734 67.6806 151.068C66.6514 148.312 65.891 145.352 65.4339 142.333C65.2278 142.305 65.0215 142.282 64.8152 142.255C65.275 145.382 66.0565 148.448 67.1212 151.299C69.6303 158.019 73.3123 164.264 76.8736 170.304C80.3572 176.213 83.9597 182.323 86.4444 188.852C91.347 201.737 91.537 216.673 86.9792 230.912C84.0999 239.907 79.5322 247.985 73.6973 254.598Z" fill="#F0F5FF"/>
<path d="M322.981 227.202C329.14 228.581 335.076 229.818 340.817 230.596C340.915 230.397 341.011 230.197 341.108 229.997C335.32 229.223 329.329 227.977 323.107 226.584C313.632 224.463 303.378 222.167 293.207 222.167C286.91 222.167 280.646 223.047 274.619 225.394C272.336 226.283 270.135 227.41 268.041 228.754C262.6 226.317 257.129 223.657 251.71 220.737C255.642 217.624 259.615 214.576 263.632 211.629C293.444 189.754 320.958 177.353 347.539 173.833C347.486 173.629 347.43 173.424 347.375 173.22C320.723 176.768 293.149 189.201 263.288 211.111C259.186 214.12 255.129 217.235 251.116 220.415C245.022 217.107 239.001 213.471 233.173 209.459C222.603 202.181 210.03 191.794 199.051 177.991C241.6 172.975 284.922 166.656 320.298 141.811C321.642 140.868 323.13 139.755 324.672 138.493C324.501 138.366 324.328 138.241 324.156 138.115C322.679 139.318 321.254 140.38 319.964 141.286C284.596 166.124 241.196 172.395 198.59 177.41C190.831 167.549 183.899 155.966 179.081 142.556C171.577 121.668 171.973 101.169 180.168 86.3164C180.524 85.6714 180.9 85.0366 181.287 84.4077C180.945 84.5727 180.606 84.744 180.267 84.9153C180.056 85.2744 179.849 85.6352 179.648 85.9993C171.362 101.017 170.95 121.713 178.519 142.779C183.31 156.116 190.181 167.654 197.877 177.494C195.411 177.784 192.944 178.07 190.484 178.355C181.612 179.384 172.438 180.448 163.53 181.653C160.278 182.093 156.971 182.606 153.681 183.249C146.627 167.606 138.879 152.346 128.864 139.259C128.721 139.409 128.575 139.554 128.43 139.702C138.36 152.69 146.06 167.837 153.07 183.37C138.719 186.245 124.783 191.652 117.343 204.236C110.394 215.987 110.4 232.232 117.362 252.518C117.602 253.219 117.85 253.911 118.102 254.598H118.746C118.47 253.847 118.196 253.087 117.927 252.303C111.031 232.208 111.007 216.148 117.854 204.569C125.206 192.135 139.065 186.801 153.336 183.959C155.826 189.494 158.231 195.074 160.622 200.62L160.883 201.224C169.185 220.482 177.772 239.068 189.016 254.598H189.766C178.42 239.039 169.785 220.342 161.43 200.963L161.17 200.36C158.8 194.861 156.414 189.328 153.947 183.84C157.174 183.213 160.417 182.711 163.607 182.28C172.509 181.075 181.681 180.011 190.55 178.983C193.14 178.682 195.736 178.381 198.335 178.076C209.419 192.094 222.153 202.626 232.843 209.987C238.608 213.955 244.561 217.557 250.585 220.838C240.358 228.965 230.411 237.516 220.699 245.866C217.336 248.757 213.934 251.678 210.505 254.598H211.459C214.693 251.841 217.904 249.084 221.079 246.355C230.86 237.947 240.878 229.335 251.177 221.159C256.566 224.072 262.006 226.728 267.418 229.161C260.013 234.109 253.979 241.772 250.33 251.076C249.874 252.241 249.474 253.417 249.105 254.598H249.738C250.087 253.498 250.461 252.403 250.886 251.317C254.545 241.987 260.63 234.332 268.091 229.463C283.221 236.217 298.09 241.231 310.867 245.203L311.347 245.352C316.732 247.025 322.239 248.739 327.11 251.493C327.246 251.33 327.383 251.168 327.518 251.004C322.568 248.181 316.98 246.443 311.518 244.747L311.037 244.597C298.39 240.665 283.691 235.713 268.724 229.059C270.674 227.84 272.715 226.809 274.828 225.986C290.425 219.913 307.721 223.786 322.981 227.202Z" fill="#F0F5FF"/>
<path d="M26.9793 186.284C29.6346 197.704 28.45 210.037 23.7289 220.122C20.6368 226.728 16.1713 232.708 10.6709 237.843C10.7803 238.022 10.8921 238.199 11.0032 238.377C16.5926 233.174 21.1293 227.107 24.2683 220.401C29.0507 210.185 30.2516 197.695 27.5632 186.134C25.4627 177.1 21.2401 169.448 15.4059 163.912C15.2758 164.073 15.1467 164.235 15.0183 164.397C20.7553 169.847 24.9099 177.384 26.9793 186.284Z" fill="#F0F5FF"/>
<path d="M173.102 34.4721C177.576 39.2262 179.581 47.2351 177.115 54.6193C174.726 61.7691 169.49 67.6914 163.199 71.4988C158.137 74.562 151.535 76.252 146.557 73.0441C142.837 70.6468 140.908 65.9438 140.801 61.3944C140.693 56.845 142.165 52.4113 143.983 48.272C146.546 42.4373 149.996 36.7792 155.136 33.231C162.22 28.3402 168.801 29.9024 173.102 34.4721Z" fill="#FFE8E9"/>
<path d="M338.722 68.0701C336.687 61.3033 333.108 55.0907 327.984 49.4108C322.849 43.731 315.847 39.0422 306.977 35.3338C298.107 31.6255 286.836 29.7712 273.166 29.7712C262.261 29.7712 251.147 31.2417 239.824 34.1829C228.491 37.1348 218.661 41.3333 210.323 46.7894L221.176 76.5863L215.359 81.2984L223.795 83.7776C232.123 79.4191 239.709 76.2543 246.555 74.2828C253.39 72.322 260.654 71.3417 268.355 71.3417C276.046 71.3417 281.869 73.196 285.824 76.9043C289.779 80.6235 291.752 85.0883 291.752 90.3313C291.752 96.6612 289.717 102.277 285.668 107.19C281.598 112.102 277.11 117.068 272.195 122.087C268.783 125.572 265.464 129.174 262.261 132.882C259.057 136.601 256.218 140.576 253.766 144.839C251.303 149.09 249.331 153.673 247.839 158.585C246.336 163.498 245.595 169.007 245.595 175.113C245.595 177.085 245.637 179.429 245.752 182.157C245.771 182.66 245.797 183.151 245.827 183.635H237.852L246.555 189.521H288.871C288.652 188.21 288.548 186.686 288.548 184.938C288.548 183.191 288.548 181.88 288.548 181.006C288.548 177.298 289.299 173.643 290.791 170.041C292.284 166.439 294.162 163.008 296.406 159.726C298.649 156.454 301.154 153.342 303.94 150.401C306.716 147.449 309.387 144.668 311.955 142.047C315.367 138.562 318.894 134.854 322.526 130.922C326.157 126.989 329.371 122.855 332.147 118.486C334.923 114.117 337.219 109.375 339.035 104.238C340.85 99.1123 341.769 93.4964 341.769 87.3798C341.769 81.2733 340.746 74.8369 338.722 68.0701Z" fill="#1E389E"/>
<path d="M259.396 69.2631C251.785 69.2631 244.608 70.2119 237.852 72.1095C231.087 74.0174 223.589 77.0805 215.36 81.2985L202.045 45.5018C210.286 40.2216 220 36.1581 231.201 33.3014C242.39 30.455 253.374 29.0317 264.151 29.0317C277.661 29.0317 288.799 30.8262 297.565 34.4152C306.332 38.0041 313.252 42.5418 318.326 48.0387C323.389 53.5356 326.927 59.5482 328.938 66.097C330.938 72.6458 331.949 78.8749 331.949 84.7841C331.949 90.7038 331.042 96.1388 329.247 101.099C327.453 106.07 325.184 110.66 322.44 114.888C319.697 119.116 316.521 123.118 312.932 126.923C309.343 130.729 305.857 134.318 302.484 137.69C299.947 140.227 297.307 142.919 294.564 145.776C291.81 148.622 289.335 151.634 287.118 154.8C284.901 157.976 283.044 161.297 281.57 164.783C280.095 168.269 279.352 171.806 279.352 175.395C279.352 176.241 279.352 177.509 279.352 179.201C279.352 180.892 279.455 182.367 279.672 183.635H237.852C237.419 181.521 237.161 179.149 237.058 176.509C236.945 173.869 236.903 171.6 236.903 169.692C236.903 163.783 237.635 158.45 239.121 153.696C240.595 148.942 242.544 144.507 244.979 140.392C247.402 136.267 250.207 132.42 253.373 128.821C256.539 125.232 259.819 121.746 263.191 118.374C268.049 113.516 272.484 108.71 276.506 103.956C280.507 99.2018 282.518 93.7668 282.518 87.6408C282.518 82.5667 280.569 78.2455 276.66 74.6464C272.752 71.0576 266.997 69.2631 259.396 69.2631Z" fill="#3851B2"/>
<path d="M291.768 230.596C291.768 238.225 289.298 244.112 284.358 248.265C279.419 252.426 273.836 254.498 267.603 254.498C261.361 254.498 255.778 252.426 250.839 248.265C245.908 244.112 243.438 238.225 243.438 230.596C243.438 222.975 245.908 217.088 250.839 212.926C258.442 206.51 269.691 205.08 278.593 209.583C286.493 213.58 291.768 221.695 291.768 230.596Z" fill="#1E389E"/>
<path d="M283.49 230.596C283.49 238.225 281.02 244.112 276.08 248.265C271.141 252.426 265.559 254.499 259.325 254.499C253.083 254.499 247.5 252.426 242.561 248.265C237.63 244.112 235.16 238.225 235.16 230.596C235.16 222.975 237.63 217.088 242.561 212.927C247.5 208.774 253.083 206.693 259.325 206.693C265.559 206.693 271.141 208.774 276.08 212.927C281.02 217.088 283.49 222.975 283.49 230.596Z" fill="#3851B2"/>
<path d="M81.1129 64.3659C84.6776 64.3659 87.5673 61.4762 87.5673 57.9115C87.5673 54.3468 84.6776 51.457 81.1129 51.457C77.5482 51.457 74.6584 54.3468 74.6584 57.9115C74.6584 61.4762 77.5482 64.3659 81.1129 64.3659Z" fill="#D3DFFF"/>
<path d="M86.2851 74.1195C88.2698 74.4914 90.1782 73.1954 90.5475 71.2247C90.9168 69.2541 89.6072 67.355 87.6225 66.983C85.6378 66.6111 83.7294 67.9071 83.3601 69.8778C82.9908 71.8484 84.3004 73.7475 86.2851 74.1195Z" fill="#D3DFFF"/>
<path d="M65.1859 50.8265C79.2213 50.8265 90.5992 39.4486 90.5992 25.4132C90.5992 11.3779 79.2213 0 65.1859 0C51.1506 0 39.7727 11.3779 39.7727 25.4132C39.7727 39.4486 51.1506 50.8265 65.1859 50.8265Z" fill="#D3DFFF"/>
<path d="M55.4279 28.6153C57.1962 28.6153 58.6297 27.1818 58.6297 25.4135C58.6297 23.6452 57.1962 22.2117 55.4279 22.2117C53.6596 22.2117 52.2261 23.6452 52.2261 25.4135C52.2261 27.1818 53.6596 28.6153 55.4279 28.6153Z" fill="white"/>
<path d="M65.1859 28.6153C66.9542 28.6153 68.3877 27.1818 68.3877 25.4135C68.3877 23.6452 66.9542 22.2117 65.1859 22.2117C63.4176 22.2117 61.9841 23.6452 61.9841 25.4135C61.9841 27.1818 63.4176 28.6153 65.1859 28.6153Z" fill="white"/>
<path d="M74.9437 28.6153C76.712 28.6153 78.1455 27.1818 78.1455 25.4135C78.1455 23.6452 76.712 22.2117 74.9437 22.2117C73.1754 22.2117 71.7419 23.6452 71.7419 25.4135C71.7419 27.1818 73.1754 28.6153 74.9437 28.6153Z" fill="white"/>
<path d="M51.6739 241.712L54.0484 250.866C54.6676 253.254 56.9757 254.867 59.5293 254.693C67.3149 254.164 83.4912 252.257 92.7755 245.414L90.1362 232.221C77.371 231.5 65.4331 232.21 55.0959 235.69C52.5077 236.561 51.0107 239.155 51.6739 241.712Z" fill="#F42330"/>
<path d="M66.5523 248.999C66.4173 248.999 66.2934 248.91 66.2551 248.774L63.0669 237.358C63.021 237.194 63.117 237.024 63.2811 236.978C63.4463 236.932 63.6156 237.028 63.6615 237.192L66.8497 248.608C66.8956 248.772 66.7996 248.942 66.6355 248.988C66.6076 248.995 66.5794 248.999 66.5523 248.999Z" fill="white"/>
<path d="M73.4424 247.457C73.3074 247.457 73.1835 247.368 73.1452 247.231L69.957 235.816C69.9111 235.651 70.0071 235.481 70.1713 235.435C70.3367 235.389 70.5057 235.486 70.5516 235.65L73.7398 247.065C73.7858 247.229 73.6897 247.399 73.5256 247.445C73.4977 247.453 73.4698 247.457 73.4424 247.457Z" fill="white"/>
<path d="M81.4451 192.229L51.7761 201.035L73.8098 231.225L105.442 233.741L149.073 215.291L132.493 190.343L81.4451 192.229Z" fill="black"/>
<path d="M118.022 196.423C183.178 177.135 193.649 234.719 91.989 245.202C88.3982 241.161 84.2022 234.151 82.5356 228.29L136.221 203.481L118.022 196.423Z" fill="black"/>
<path d="M120.79 237.693C117.743 236.717 114.823 234.789 114.823 234.789L104.351 238.074L106.751 249.465L117.629 251.675C120.943 245.614 121.136 240.637 120.79 237.693Z" fill="#F9B384"/>
<path d="M82.7687 228.69L82.3037 227.89C93.5033 221.381 122.191 205.743 146.633 201.132L146.804 202.042C122.504 206.627 93.9272 222.205 82.7687 228.69Z" fill="#2F2F2F"/>
<path d="M81.4451 192.23C20.7982 180.699 5.09084 238.982 106.751 249.465C110.342 245.424 113.156 240.65 114.823 234.789C99.2068 224.34 81.7469 214.409 62.6112 204.949L81.4451 192.23Z" fill="black"/>
<path d="M114.574 235.179C111.69 233.343 108.683 231.402 105.501 229.347C89.5247 219.032 71.417 207.341 56.0325 200.674L56.4005 199.825C71.8551 206.522 89.9967 218.235 106.003 228.57C109.184 230.624 112.189 232.564 115.071 234.399L114.574 235.179Z" fill="#2F2F2F"/>
<path d="M36.9487 221.128L36.1387 220.681C38.4151 216.56 42.0615 213.78 46.9762 212.419L47.2233 213.31C42.4914 214.621 39.1307 217.178 36.9487 221.128Z" fill="#2F2F2F"/>
<path d="M163.528 217.619C161.346 213.67 157.986 211.113 153.254 209.802L153.501 208.91C158.416 210.271 162.062 213.051 164.339 217.172L163.528 217.619Z" fill="#2F2F2F"/>
<path d="M101.072 248.953L100.396 248.321C105.247 243.125 108.226 237.64 109.505 231.552L110.41 231.742C109.097 238 106.042 243.63 101.072 248.953Z" fill="#2F2F2F"/>
<path d="M151.037 234.3C143.267 229.5 128.203 237.794 124.422 238.213C123.319 238.335 122.044 238.094 120.79 237.693C121.136 240.637 120.943 245.614 117.629 251.675L119.477 252.05C119.477 252.05 132.25 256.733 145.801 254.007C158.308 251.491 157.145 238.074 151.037 234.3Z" fill="#F42330"/>
<path d="M140.445 250.002C140.414 250.002 140.383 249.997 140.352 249.987C140.19 249.936 140.099 249.763 140.151 249.6C141.074 246.677 141.477 240.927 138.803 237.065C138.706 236.925 138.741 236.732 138.881 236.636C139.021 236.538 139.213 236.573 139.31 236.713C142.11 240.758 141.699 246.747 140.739 249.786C140.698 249.917 140.576 250.002 140.445 250.002Z" fill="white"/>
<path d="M134.352 251.159C134.321 251.159 134.29 251.154 134.259 251.145C134.096 251.093 134.006 250.92 134.058 250.758C134.981 247.834 135.383 242.084 132.71 238.222C132.613 238.082 132.648 237.89 132.788 237.793C132.927 237.696 133.12 237.73 133.217 237.871C136.017 241.915 135.605 247.904 134.646 250.943C134.604 251.075 134.483 251.159 134.352 251.159Z" fill="white"/>
<path d="M70.7156 117.081C70.7156 117.081 85.9893 104.093 85.4238 101.625C85.0195 99.8611 80.693 102.448 80.693 102.448C80.693 102.448 86.7606 95.2487 86.4521 94.3745C85.9007 92.8123 81.7042 95.7241 81.7042 95.7241C81.7042 95.7241 84.5407 91.6414 83.1847 90.9765C81.8286 90.3113 78.8721 92.8271 78.8721 92.8271C78.8721 92.8271 80.5994 90.5603 79.7876 89.9655C78.9761 89.3709 75.4751 91.8161 75.4751 91.8161C75.4751 91.8161 76.7314 88.9579 74.0623 90.0417C71.3934 91.1253 52.6792 108.299 52.6792 108.299L70.7156 117.081Z" fill="#F9B384"/>
<path d="M76.9648 101.676C76.8905 101.676 76.8159 101.65 76.7567 101.596C74.1349 99.2001 72.979 98.6186 70.0865 97.7288C69.9236 97.679 69.8323 97.5062 69.8824 97.3433C69.9325 97.1804 70.105 97.0886 70.2682 97.1392C73.2651 98.0608 74.462 98.6628 77.1733 101.14C77.2992 101.255 77.3078 101.45 77.1931 101.576C77.1319 101.642 77.0484 101.676 76.9648 101.676Z" fill="#E28B6D"/>
<path d="M72.3631 108.721C72.3487 108.721 72.3344 108.72 72.3201 108.718C72.1513 108.695 72.0335 108.539 72.0572 108.37C72.3574 106.222 73.0334 104.88 74.1241 104.267C75.0564 103.742 76.2695 103.797 77.73 104.427C77.8865 104.494 77.9585 104.676 77.8909 104.832C77.8235 104.989 77.6419 105.062 77.4854 104.993C76.2115 104.443 75.1825 104.38 74.4265 104.805C73.5278 105.31 72.9362 106.538 72.6681 108.455C72.6466 108.609 72.5146 108.721 72.3631 108.721Z" fill="#E28B6D"/>
<path d="M71.6429 95.737C71.5609 95.737 71.479 95.7044 71.4183 95.64C71.3013 95.5158 71.3072 95.3206 71.4311 95.2038L75.2638 91.5916C75.3877 91.4741 75.5829 91.4805 75.6999 91.6044C75.8169 91.7286 75.811 91.9238 75.6871 92.0405L71.8544 95.6528C71.7949 95.7093 71.7189 95.737 71.6429 95.737Z" fill="#E28B6D"/>
<path d="M75.1907 96.9712C75.1137 96.9712 75.0369 96.9428 74.9769 96.8851C74.854 96.7671 74.8501 96.5719 74.968 96.4489L78.6494 92.6133C78.7674 92.4899 78.9626 92.4859 79.0858 92.6044C79.2087 92.7224 79.2127 92.9176 79.0947 93.0406L75.4133 96.8762C75.3526 96.9394 75.2716 96.9712 75.1907 96.9712Z" fill="#E28B6D"/>
<path d="M78.816 99.1306C78.7408 99.1306 78.6652 99.1032 78.6058 99.0477C78.4811 98.9315 78.4742 98.7362 78.5904 98.6116L81.4788 95.5132C81.5953 95.389 81.79 95.3819 81.9149 95.4979C82.0396 95.6142 82.0465 95.8094 81.9302 95.934L79.0419 99.0324C78.9809 99.0976 78.8987 99.1306 78.816 99.1306Z" fill="#E28B6D"/>
<path d="M128.412 203.952L72.5685 206.112L66.3979 155.205C66.3979 155.205 85.0931 137.472 92.2858 130.942L104.428 130.32C142.101 147.444 135.932 168.831 128.412 203.952Z" fill="#F42330"/>
<path d="M104.428 130.32C104.428 130.32 147.529 134.005 161.116 163.535C174.412 192.429 119.773 202.718 119.773 202.718L104.428 130.32Z" fill="#F42330"/>
<path d="M55.1615 136.647L72.9723 114.973L56.3169 104.879C49.3693 109.709 35.9341 120.651 24.5487 133.042C22.0355 135.777 20.0725 138.971 19.0837 142.489C18.2401 145.49 18.0866 148.455 18.561 151.358C19.7968 158.925 25.7487 164.764 33.694 165.694C40.4794 166.489 66.3981 164.46 87.3782 158.289L93.5488 134.474C90.3773 132.674 66.8116 132.362 55.1615 136.647Z" fill="#F42330"/>
<g opacity="0.8">
<path d="M140.397 142.038C140.489 142.017 140.582 141.996 140.675 141.974C140.481 141.859 140.285 141.747 140.09 141.633C136.931 142.361 133.672 143.104 130.46 143.491C128.529 143.724 122.079 144.15 120.193 139.852C119.255 137.714 119.965 135.336 121.026 133.667C120.871 133.622 120.718 133.579 120.564 133.535C119.478 135.303 118.78 137.783 119.77 140.038C121.782 144.629 128.504 144.193 130.515 143.951C133.82 143.552 137.164 142.783 140.397 142.038Z" fill="white"/>
<path d="M160.511 175.343C158.452 174.547 156.325 173.725 154.089 173.936C150.166 174.306 146.809 178.185 146.606 182.582C146.467 185.58 147.612 188.722 149.796 191.486C149.927 191.404 150.058 191.321 150.189 191.238C148.054 188.553 146.934 185.504 147.068 182.604C147.262 178.428 150.43 174.746 154.132 174.396C156.258 174.199 158.243 174.962 160.344 175.774C161.094 176.064 161.857 176.356 162.632 176.604C162.672 176.455 162.711 176.305 162.747 176.155C161.991 175.912 161.245 175.626 160.511 175.343Z" fill="white"/>
<path d="M51.7239 160.624C49.0331 158.399 44.8519 157.804 40.2548 158.992C36.1575 160.052 32.6425 162.151 30.2275 164.929C30.3862 164.981 30.5413 165.038 30.7022 165.086C33.0517 162.45 36.4359 160.458 40.3703 159.441C44.8217 158.289 48.8534 158.852 51.4292 160.981C52.6535 161.993 53.5191 163.308 54.1482 164.726C54.3072 164.708 54.4669 164.69 54.6266 164.671C53.968 163.145 53.0501 161.721 51.7239 160.624Z" fill="white"/>
<path d="M27.3979 130.016C32.4401 128.763 37.3603 127.003 41.8984 124.389C43.613 123.402 45.5494 122.142 46.9111 120.293C48.3597 118.326 48.8408 115.984 48.1988 114.028C47.9468 113.262 47.5008 112.588 46.9432 112.048C46.825 112.145 46.7062 112.242 46.5873 112.34C47.1078 112.836 47.525 113.46 47.7592 114.173C48.355 115.986 47.8986 118.172 46.5389 120.019C45.2278 121.799 43.3408 123.025 41.6678 123.988C37.3874 126.454 32.7575 128.159 28.0017 129.391C27.7998 129.599 27.5989 129.807 27.3979 130.016Z" fill="white"/>
</g>
<path d="M108.373 119.001L108.365 119.791L108.24 132.066L108.224 133.396C108.201 135.477 107.348 137.362 105.971 138.731C104.602 140.093 102.716 140.945 100.628 140.961C96.4189 140.984 92.9764 137.605 92.9374 133.388L92.7886 118.219L108.373 119.001Z" fill="#F9B384"/>
<path d="M108.365 119.792L108.239 132.066C101.418 129.289 98.6091 121.904 98.6091 121.904L108.365 119.792Z" fill="#102048"/>
<path d="M111.064 98.3718C113.509 101.306 120.647 117.93 113.411 123.602C105.267 129.984 92.8745 119.494 92.8745 119.494L91.2122 100.132L101.969 97.2961L111.064 98.3718Z" fill="#F9B384"/>
<path d="M85.7321 97.3057C85.7321 97.3057 61.8724 109.75 81.3271 145.621C83.8257 150.228 89.3602 152.239 94.0948 149.991C99.1736 147.579 101.097 141.375 98.3387 136.475C95.1564 130.822 92.0849 123.543 93.396 118.125L85.7321 97.3057Z" fill="black"/>
<path d="M87.9854 109.65C91.55 109.65 94.4397 106.76 94.4397 103.196C94.4397 99.6314 91.55 96.7417 87.9854 96.7417C84.4209 96.7417 81.5312 99.6314 81.5312 103.196C81.5312 106.76 84.4209 109.65 87.9854 109.65Z" fill="#F42330"/>
<path d="M95.9254 110.951C95.2278 106.924 94.803 104.163 98.8727 102.088C98.8727 102.088 113.215 104.696 115.953 99.2847C118.691 93.8736 114.519 85.3335 105.783 91.2661C83.422 86.8981 80.4231 107.825 87.2031 114.801L93.895 113.774C95.2417 113.567 96.1576 112.293 95.9254 110.951Z" fill="black"/>
<path d="M107.03 111.916C107.556 111.916 107.983 111.489 107.983 110.962C107.983 110.435 107.556 110.009 107.03 110.009C106.503 110.009 106.076 110.435 106.076 110.962C106.076 111.489 106.503 111.916 107.03 111.916Z" fill="#102048"/>
<path d="M113.484 108.738C114.011 108.738 114.438 108.311 114.438 107.784C114.438 107.257 114.011 106.831 113.484 106.831C112.958 106.831 112.531 107.257 112.531 107.784C112.531 108.311 112.958 108.738 113.484 108.738Z" fill="#102048"/>
<path d="M112.824 113.897C112.757 113.897 112.69 113.872 112.638 113.823C112.53 113.72 112.526 113.549 112.628 113.441C113.011 113.038 113.43 112.472 113.254 112.062C113.071 111.636 112.298 111.452 111.944 111.452C111.183 111.452 110.818 110.099 110.752 109.827C110.717 109.683 110.807 109.537 110.951 109.502C111.096 109.466 111.242 109.556 111.277 109.701C111.416 110.272 111.731 110.912 111.944 110.912C112.308 110.912 113.421 111.084 113.75 111.849C113.984 112.395 113.739 113.056 113.02 113.813C112.967 113.869 112.895 113.897 112.824 113.897Z" fill="#102048"/>
<path d="M112.873 117.515C112.821 117.515 112.768 117.5 112.722 117.468C110.927 116.257 109.114 117.273 109.096 117.283C108.967 117.357 108.802 117.313 108.727 117.184C108.653 117.055 108.697 116.889 108.826 116.815C108.912 116.766 110.952 115.623 113.024 117.021C113.147 117.104 113.18 117.272 113.096 117.396C113.044 117.473 112.959 117.515 112.873 117.515Z" fill="#102048"/>
<path d="M106.612 106.832C107.155 107.853 106.209 108.058 105.102 108.647C103.994 109.235 102.86 109.451 102.602 108.964C102.343 108.477 103.031 107.605 104.139 107.016C105.246 106.428 106.192 106.042 106.612 106.832Z" fill="#102048"/>
<path d="M110.651 104.99C110.89 105.901 111.569 105.502 112.558 105.243C113.546 104.985 114.345 104.488 114.231 104.053C114.117 103.618 113.224 103.476 112.235 103.734C111.247 103.993 110.467 104.284 110.651 104.99Z" fill="#102048"/>
<path opacity="0.4" d="M102.629 118.223C104.182 118.223 105.441 116.964 105.441 115.411C105.441 113.859 104.182 112.6 102.629 112.6C101.076 112.6 99.8176 113.859 99.8176 115.411C99.8176 116.964 101.076 118.223 102.629 118.223Z" fill="#EB5D60"/>
<path d="M95.3954 118.071C96.6802 116.406 96.188 113.873 94.296 112.413C92.4041 110.953 89.8287 111.119 88.5439 112.783C87.2591 114.448 87.7513 116.982 89.6433 118.442C91.5353 119.902 94.1106 119.736 95.3954 118.071Z" fill="#F9B384"/>
<path d="M93.6255 116.833C93.4764 116.833 93.3555 116.712 93.3555 116.563C93.3555 115.766 92.967 115.029 92.3164 114.592C91.76 114.217 91.0966 114.13 90.5422 114.356C90.4037 114.411 90.2465 114.346 90.1902 114.208C90.134 114.069 90.2001 113.912 90.3383 113.856C91.0593 113.562 91.9116 113.669 92.6177 114.144C93.4179 114.681 93.8955 115.586 93.8955 116.563C93.8953 116.712 93.7746 116.833 93.6255 116.833Z" fill="#102048"/>
<path d="M55.3972 136.854L54.9441 136.435L45.2022 146.974L45.6553 147.393L55.3972 136.854Z" fill="#FA5A64"/>
<path d="M123.566 181.726L123.386 181.136C130.478 178.974 137.361 176.389 143.598 168.589L144.08 168.974C137.733 176.912 130.754 179.535 123.566 181.726Z" fill="#FA5A64"/>
<path d="M127.878 157.831H67.5495C65.38 157.831 63.6211 159.733 63.6211 162.08V205.153C63.6211 207.5 65.3797 209.403 67.5495 209.403H127.878C130.048 209.403 131.806 207.5 131.806 205.153V162.08C131.806 159.733 130.048 157.831 127.878 157.831Z" fill="#D3DFFF"/>
<path d="M100.898 180.894C101.127 180.894 101.313 181.095 101.313 181.343V185.89C101.313 186.138 101.128 186.339 100.898 186.339H94.5287C94.2996 186.339 94.1138 186.138 94.1138 185.89V181.343C94.1138 181.095 94.2994 180.894 94.5287 180.894H100.898ZM100.898 179.66H94.5287C93.6194 179.66 92.8796 180.415 92.8796 181.343V185.89C92.8796 186.819 93.6194 187.573 94.5287 187.573H100.898C101.808 187.573 102.547 186.818 102.547 185.89V181.343C102.547 180.415 101.807 179.66 100.898 179.66Z" fill="#F42330"/>
<path d="M308.806 254.074H0V255.121H308.806V254.074Z" fill="#C1CAEE"/>
</svg>
