<svg width="10" height="18" viewBox="0 0 10 18" fill="none" xmlns="http://www.w3.org/2000/svg">
<path fill-rule="evenodd" clip-rule="evenodd" d="M9.27423 0C9.70225 0.199178 9.86329 0.542442 9.85058 1.00436C9.83363 1.73751 9.84634 2.47065 9.84634 3.20379C9.84634 3.80556 9.50308 4.14459 8.90555 4.14883C8.40548 4.15307 7.90118 4.15307 7.40112 4.1573C7.34603 4.1573 7.2867 4.16578 7.23161 4.17425C6.99429 4.22087 6.95615 4.26749 6.9392 4.50904C6.90953 4.91587 6.93072 5.3227 6.92224 5.7253C6.918 5.85243 6.99429 5.83972 7.07481 5.83972C7.64268 5.83972 8.21478 5.85243 8.78265 5.83548C9.40561 5.81429 9.76582 6.24655 9.75311 6.81018C9.73616 7.62808 9.74887 8.44598 9.74887 9.26388C9.74887 9.86565 9.40561 10.2089 8.80807 10.2131C8.23173 10.2131 7.65963 10.2174 7.08328 10.2089C6.94343 10.2089 6.92224 10.2513 6.92224 10.3784C6.92648 12.3744 6.92648 14.3705 6.92648 16.3665C6.92648 16.875 6.68493 17.2098 6.24843 17.303C6.15944 17.32 6.07044 17.3242 5.98145 17.3242C5.14236 17.3242 4.29903 17.3073 3.45994 17.3327C2.91327 17.3496 2.45135 17.0318 2.45558 16.3198C2.47253 14.3577 2.45982 12.3956 2.45982 10.4335C2.45982 10.2174 2.45982 10.2174 2.23521 10.2174C1.79448 10.2174 1.35375 10.2174 0.917252 10.2174C0.349384 10.2131 0.00188348 9.86988 0.00188348 9.30202C-0.00235435 8.45445 0.00188348 7.61113 0.00188348 6.76356C0.00188348 6.18722 0.340909 5.85243 0.913015 5.84819C1.35799 5.84395 1.80296 5.83972 2.24793 5.85243C2.4132 5.85667 2.46829 5.827 2.46406 5.64478C2.45558 5.14471 2.44711 4.64041 2.47677 4.14035C2.54458 2.91986 2.95564 1.84345 3.8922 1.01284C4.49821 0.474637 5.21864 0.177989 6.01111 0.0381414C6.04078 0.0339036 6.08315 0.0466176 6.09587 0.00423937C7.15532 1.55187e-06 8.21478 0 9.27423 0ZM3.4769 12.9932C3.4769 14.0484 3.48114 15.1036 3.47266 16.1546C3.47266 16.2859 3.50656 16.3114 3.63369 16.3114C4.3287 16.3071 5.01946 16.3029 5.71446 16.3114C5.86703 16.3114 5.90517 16.2732 5.90517 16.1207C5.90093 14.0357 5.90093 11.9464 5.90093 9.86141C5.90093 9.40796 6.11282 9.19607 6.56203 9.19607C7.2316 9.19607 7.90542 9.19183 8.57499 9.20031C8.69789 9.20031 8.73603 9.17488 8.73603 9.04351C8.72756 8.36546 8.72756 7.69164 8.73603 7.01359C8.73603 6.88222 8.70213 6.85679 8.57499 6.85679C7.8927 6.86527 7.21042 6.86103 6.52813 6.86103C6.1552 6.86103 5.9094 6.65338 5.90517 6.29316C5.89669 5.66597 5.8755 5.04301 5.92212 4.41581C5.95602 3.97508 6.12554 3.59791 6.52389 3.36059C6.76545 3.21651 7.03667 3.15294 7.31213 3.14446C7.77405 3.13175 8.23597 3.13175 8.69789 3.13175C8.78265 3.13175 8.82926 3.12327 8.82926 3.01733C8.82502 2.37318 8.82502 1.73327 8.82926 1.08912C8.82926 1.0086 8.80384 0.983175 8.72332 0.983175C8.01136 0.987413 7.30365 0.970462 6.5917 1.00013C5.83736 1.02979 5.14236 1.25863 4.56178 1.76717C3.83711 2.40708 3.53199 3.24193 3.48537 4.18273C3.45571 4.83959 3.47266 5.50069 3.46842 6.16179C3.46842 6.66186 3.26077 6.86527 2.75647 6.86527C2.21403 6.86527 1.67582 6.86951 1.13338 6.86103C1.02743 6.86103 1.00201 6.88646 1.00201 6.9924C1.00625 7.67893 1.00625 8.3697 1.00201 9.05622C1.00201 9.17912 1.03591 9.20455 1.15457 9.20455C1.73091 9.20031 2.30302 9.20031 2.87936 9.20455C3.15059 9.20455 3.34976 9.34016 3.43028 9.569C3.46842 9.67071 3.46842 9.77665 3.46842 9.88684C3.47689 10.9209 3.4769 11.9549 3.4769 12.9932Z" fill="white"/>
</svg>
