<svg width="28" height="30" viewBox="0 0 28 30" fill="none" xmlns="http://www.w3.org/2000/svg">
<path fill-rule="evenodd" clip-rule="evenodd" d="M19.2181 0C19.7408 0.214195 19.7987 0.305797 19.7401 0.892596C19.6086 2.21083 19.4722 3.52768 19.3358 4.84522C19.2973 5.21576 19.0507 5.42857 18.7077 5.3962C18.3895 5.36659 18.1863 5.10212 18.2215 4.74398C18.3606 3.34999 18.5066 1.95737 18.643 0.562694C18.6753 0.236235 18.9074 0.112952 19.1602 0C19.1795 0 19.1988 0 19.2181 0Z" fill="#3851B2"/>
<path fill-rule="evenodd" clip-rule="evenodd" d="M10.1517 20.3059C10.2577 20.4657 10.3665 20.6317 10.4774 20.7949C11.5525 22.3811 12.6263 23.9672 13.7041 25.5513C14.0375 26.041 14.2221 26.5734 14.1491 27.1677C14.0175 28.236 13.3887 28.9447 12.3756 29.1988C11.4699 29.4261 10.4554 29.0101 9.86859 28.1505C8.56275 26.2373 7.26312 24.3205 5.96761 22.4003C5.84226 22.2151 5.77063 22.1545 5.53715 22.2853C3.41035 23.4796 0.667821 22.3446 0.0954851 19.6984C-0.241305 18.1412 0.323455 16.8623 1.62171 15.9352C2.38965 15.387 3.181 14.8725 3.96547 14.3484C4.11354 14.2499 4.21617 14.1308 4.29537 13.9703C5.73206 11.0501 7.19217 8.14155 8.60201 5.20825C9.02833 4.32116 9.90991 3.7998 10.9464 3.87556C12.0078 3.95338 12.9272 4.40106 13.7909 4.97683C15.6835 6.2379 17.1306 7.9246 18.3414 9.82412C19.3352 11.3834 20.1252 13.0364 20.5074 14.8601C20.7065 15.8106 20.7905 16.7651 20.5384 17.7239C20.2801 18.7094 19.4984 19.5455 18.256 19.6179C15.6181 19.7728 12.9858 20.0235 10.3514 20.2363C10.2873 20.2412 10.2157 20.2295 10.1517 20.3059ZM9.3176 7.07609C9.34515 7.79719 9.47188 8.49969 9.68745 9.18429C10.5862 12.0398 12.1827 14.4572 14.3495 16.5021C15.1994 17.3037 16.1395 17.9883 17.2704 18.3554C17.5672 18.4518 17.871 18.5545 18.1933 18.4753C18.8311 18.3189 19.2064 17.8905 19.3848 17.2838C19.6203 16.4821 19.5329 15.6756 19.3614 14.8773C19.0452 13.4069 18.3923 12.077 17.6099 10.8062C16.5527 9.08787 15.3054 7.53065 13.689 6.2992C12.9727 5.75372 12.211 5.28814 11.3211 5.07601C10.2928 4.83014 9.56968 5.29709 9.38647 6.33639C9.34377 6.57882 9.33964 6.82883 9.3176 7.07609ZM15.302 18.7163C11.7213 16.0991 9.3789 12.6755 8.29759 8.38743C8.27968 8.41635 8.25764 8.44666 8.2418 8.47972C7.28171 10.4357 6.32437 12.3938 5.35877 14.347C5.28163 14.5034 5.314 14.6025 5.40147 14.7313C6.37947 16.1646 7.35609 17.5978 8.3217 19.0393C8.44153 19.2177 8.56344 19.2604 8.76455 19.2418C9.69571 19.1578 10.6289 19.0896 11.5608 19.0152C12.8046 18.9167 14.0478 18.8169 15.302 18.7163ZM1.13685 18.9684C1.14236 19.9071 1.74086 20.9127 2.58938 21.3459C3.50057 21.8115 4.39248 21.7371 5.24031 21.1689C5.9132 20.7178 6.58058 20.2584 7.25003 19.8031C7.33405 19.746 7.42703 19.7164 7.32854 19.5731C6.4022 18.2204 5.48205 16.8636 4.56673 15.5041C4.48546 15.3836 4.42967 15.3911 4.32361 15.4648C3.58667 15.9738 2.83113 16.4573 2.11071 16.989C1.45573 17.4704 1.15751 18.1591 1.13685 18.9684ZM13.0319 26.9508C13.0443 26.6491 12.9176 26.3991 12.7537 26.1574C11.5167 24.3364 10.2832 22.514 9.04831 20.6916C8.7859 20.3045 8.58066 20.2653 8.18946 20.5297C7.7714 20.8128 7.35954 21.1062 6.93252 21.3755C6.74863 21.4912 6.74932 21.5711 6.86778 21.7419C7.66809 22.9031 8.456 24.0726 9.24804 25.2393C9.78869 26.0355 10.3225 26.8365 10.8721 27.6264C11.1799 28.0693 11.7137 28.2339 12.213 28.072C12.6993 27.9157 13.0299 27.4632 13.0319 26.9508Z" fill="#3851B2"/>
<path fill-rule="evenodd" clip-rule="evenodd" d="M21.6363 7.98228C21.3381 7.97746 21.1576 7.83902 21.0695 7.59108C20.9813 7.34383 21.0798 7.09933 21.336 6.9299C22.1942 6.3617 23.0544 5.79831 23.9146 5.23356C24.321 4.96702 24.7266 4.69979 25.1337 4.43394C25.4822 4.20666 25.8203 4.25005 26.0125 4.54276C26.2026 4.83203 26.1089 5.16331 25.7618 5.39197C24.5207 6.20949 23.2768 7.02288 22.0351 7.83902C21.9042 7.92374 21.7706 7.99192 21.6363 7.98228Z" fill="#3851B2"/>
<path fill-rule="evenodd" clip-rule="evenodd" d="M22.5833 10.5885C23.2954 10.7152 24.0069 10.8413 24.7191 10.9687C25.5242 11.1126 26.3293 11.2614 27.1358 11.4019C27.4995 11.4653 27.7316 11.7256 27.6847 12.039C27.6358 12.371 27.3266 12.5886 26.965 12.5259C26.1117 12.3771 25.2604 12.2181 24.4077 12.0652C23.79 11.9543 23.1715 11.8448 22.553 11.7353C22.294 11.6898 22.0833 11.5844 21.9993 11.3089C21.9338 11.094 21.9965 10.9122 22.1425 10.7579C22.2589 10.6347 22.4084 10.5768 22.5833 10.5885Z" fill="#3851B2"/>
<path fill-rule="evenodd" clip-rule="evenodd" d="M13.1608 9.39282C14.7497 9.39695 15.913 10.2193 16.3379 11.4618C16.7567 12.685 16.3545 14.0459 15.3344 14.8538C15.2229 14.9419 15.1134 15.0363 14.9674 15.0666C14.6988 15.1224 14.437 14.995 14.3248 14.7553C14.2097 14.508 14.2752 14.238 14.5245 14.0493C14.9708 13.7119 15.2628 13.2848 15.3338 12.7228C15.4316 11.9549 15.1671 11.3288 14.5403 10.8839C13.9033 10.4314 13.2159 10.4053 12.5162 10.7517C12.4308 10.7937 12.3529 10.8502 12.2675 10.8908C11.9845 11.0237 11.6759 10.9273 11.5271 10.6635C11.3811 10.4046 11.4555 10.0898 11.7179 9.91213C12.2296 9.56638 12.7951 9.39489 13.1608 9.39282Z" fill="#3851B2"/>
</svg>
