<svg width="18" height="18" viewBox="0 0 18 18" fill="none" xmlns="http://www.w3.org/2000/svg">
<path fill-rule="evenodd" clip-rule="evenodd" d="M4.19191 0C7.14867 0 10.1012 0 13.058 0C13.2737 0.0761397 13.5063 0.07191 13.7263 0.13113C15.5156 0.621808 16.6619 1.75544 17.178 3.53204C17.2414 3.752 17.2287 3.98464 17.326 4.19191C17.326 7.18251 17.326 10.1689 17.326 13.1595C17.2583 13.2102 17.271 13.2906 17.2626 13.3583C17.2118 13.7474 17.1103 14.1239 16.9453 14.475C16.0782 16.3108 14.6231 17.2964 12.5842 17.3176C9.97007 17.3472 7.35171 17.326 4.73758 17.326C4.0777 17.326 3.43052 17.216 2.83409 16.9369C1.28168 16.2178 0.342626 15.0207 0.0549867 13.3244C0.0465267 13.2695 0.0634498 13.1976 0 13.1595C0 10.1604 0 7.15713 0 4.15807C0.10152 3.98042 0.0803676 3.77315 0.135357 3.57857C0.630265 1.79351 1.76813 0.647188 3.54896 0.13536C3.75623 0.0803702 3.98464 0.0930596 4.19191 0ZM8.65455 16.3108C9.95315 16.3108 11.2475 16.3108 12.5461 16.3108C12.9734 16.3108 13.3879 16.2601 13.7897 16.1162C15.3506 15.5621 16.3024 14.217 16.3066 12.5631C16.3066 9.96161 16.3066 7.3644 16.3066 4.76296C16.3066 4.47955 16.2854 4.19614 16.222 3.9212C15.8117 2.16575 14.365 1.0152 12.5631 1.01097C9.95738 1.00674 7.35171 1.01097 4.74604 1.01097C4.46686 1.01097 4.19191 1.03212 3.92119 1.09134C2.1869 1.48896 1.0152 2.93984 1.01097 4.71643C1.00251 7.34325 1.01097 9.9743 1.01097 12.6011C1.01097 13.1299 1.0998 13.6459 1.33244 14.1239C2.02616 15.5537 3.17672 16.2854 4.76296 16.3024C6.06157 16.3235 7.35594 16.3108 8.65455 16.3108Z" fill="white"/>
<path fill-rule="evenodd" clip-rule="evenodd" d="M8.66688 3.92581C11.2768 3.93427 13.4171 6.0831 13.396 8.68031C13.3791 11.2902 11.2472 13.4094 8.64996 13.4052C6.04006 13.3967 3.89968 11.2479 3.9166 8.6507C3.93775 6.0408 6.06967 3.91735 8.66688 3.92581ZM12.3808 8.65916C12.3766 6.61185 10.6973 4.93677 8.65419 4.941C6.60687 4.94523 4.9318 6.62454 4.93603 8.66762C4.94026 10.7149 6.61956 12.39 8.66264 12.3858C10.71 12.3815 12.385 10.7022 12.3808 8.65916Z" fill="white"/>
<path fill-rule="evenodd" clip-rule="evenodd" d="M13.5105 5.04197C12.7491 5.04197 12.1104 4.40324 12.1104 3.64184C12.1104 2.88045 12.7533 2.23749 13.5105 2.24172C14.2719 2.24595 14.9106 2.88468 14.9106 3.64184C14.9106 4.40324 14.2719 5.04197 13.5105 5.04197ZM13.502 3.26115C13.2947 3.26538 13.1171 3.45573 13.1255 3.65876C13.1382 3.8618 13.3159 4.031 13.5147 4.02677C13.7135 4.02254 13.8912 3.84488 13.8912 3.64608C13.8954 3.43881 13.7051 3.25692 13.502 3.26115Z" fill="white"/>
</svg>
