<svg width="24" height="29" viewBox="0 0 24 29" fill="none" xmlns="http://www.w3.org/2000/svg">
<path fill-rule="evenodd" clip-rule="evenodd" d="M11.8905 28.4877C11.5254 28.3593 11.1375 28.3546 10.7617 28.277C9.45101 28.0062 8.18446 27.6123 6.99883 26.9817C6.84034 26.8975 6.79487 26.9296 6.72867 27.0827C6.45249 27.7173 5.95162 28.0336 5.26552 28.0383C4.06919 28.0463 2.87286 28.0417 1.67719 28.0403C0.642691 28.039 0.00272823 27.395 0.0013908 26.3511C-0.00128406 24.8305 0.000722451 23.3098 0.000722451 21.7885C0.000722451 19.6927 5.37353e-05 17.597 0.000722451 15.5012C0.00139117 14.3677 0.620621 13.7525 1.75677 13.7518C2.88823 13.7518 4.0197 13.7518 5.1505 13.7518C5.98907 13.7518 6.48592 14.0862 6.80624 14.8826C7.36395 14.4854 7.84876 14.02 8.28744 13.5057C9.33264 12.2773 9.90239 10.8242 10.2769 9.27878C10.4848 8.42349 10.5979 7.55015 10.7811 6.69018C10.8326 6.44743 10.9108 6.20669 11.0071 5.97799C11.3655 5.12404 12.1152 4.7616 13.0186 4.98495C14.3239 5.30794 15.105 6.18998 15.5771 7.393C16.0225 8.52915 16.0312 9.6867 15.7115 10.8563C15.4801 11.7036 15.2662 12.5562 15.0281 13.4014C14.9679 13.6154 15.0274 13.6448 15.224 13.6442C17.3659 13.6388 19.5078 13.6382 21.6497 13.6422C22.7792 13.6442 23.6746 14.3249 23.9294 15.3902C24.1173 16.1759 23.922 16.8788 23.3737 17.4712C23.2546 17.599 23.2406 17.6571 23.369 17.7936C24.2102 18.685 24.2102 20.0084 23.3696 20.9078C23.2459 21.0395 23.2499 21.0964 23.3717 21.2268C24.4811 22.4197 24.0618 24.2902 22.5471 24.8933C22.3465 24.9729 22.3626 25.0284 22.4461 25.1949C23.1389 26.5691 22.3064 28.1955 20.7944 28.4409C20.7737 28.4442 20.7563 28.4716 20.7376 28.4877C17.7892 28.4877 14.8395 28.4877 11.8905 28.4877ZM6.85505 20.8998C6.85505 22.3462 6.86575 23.7933 6.84569 25.2397C6.84168 25.5253 6.93998 25.6797 7.17002 25.8075C8.88995 26.7624 10.7303 27.3308 12.6976 27.3649C15.2381 27.4084 17.7792 27.3763 20.3196 27.3749C21.0545 27.3749 21.5742 26.8928 21.5748 26.2181C21.5755 25.5413 21.0592 25.0598 20.3243 25.0532C20 25.0505 19.6743 25.0618 19.3507 25.0451C19.013 25.0277 18.799 24.7502 18.8418 24.4165C18.8792 24.1236 19.12 23.9424 19.4898 23.9404C20.2588 23.9364 21.0291 23.9484 21.7982 23.931C22.3525 23.9177 22.7839 23.5011 22.8674 22.9447C22.947 22.4144 22.6448 21.8988 22.1426 21.7015C21.956 21.6287 21.7627 21.6273 21.5681 21.6273C20.8727 21.6273 20.1772 21.6307 19.4817 21.626C19.0638 21.6233 18.8204 21.3899 18.8391 21.0308C18.8552 20.7205 19.0812 20.5186 19.4436 20.5159C20.1946 20.5099 20.9456 20.5233 21.6965 20.5106C22.3846 20.4985 22.8982 19.9809 22.8862 19.337C22.8741 18.6816 22.3619 18.1975 21.6698 18.1948C20.9462 18.1921 20.2227 18.1955 19.4998 18.1935C19.0838 18.1921 18.8431 17.9902 18.8378 17.6464C18.8324 17.2867 19.0725 17.082 19.5058 17.0814C20.2387 17.08 20.971 17.0854 21.7032 17.0794C22.2756 17.0747 22.7444 16.7002 22.8534 16.1766C23.0146 15.4022 22.4675 14.7589 21.637 14.7583C19.235 14.7556 16.833 14.7576 14.4316 14.7569C13.8097 14.7569 13.5984 14.4761 13.7582 13.8742C14.0578 12.7481 14.3574 11.622 14.6549 10.4958C14.8609 9.71947 14.8984 8.9384 14.6677 8.16403C14.4229 7.34351 14.0344 6.61729 13.2099 6.23277C12.388 5.84893 12.0985 5.98535 11.8865 6.86872C11.6899 7.6879 11.5815 8.52447 11.4057 9.34833C10.8005 12.1837 9.44566 14.5229 6.98211 16.1412C6.84168 16.2328 6.85639 16.3505 6.85639 16.4782C6.85505 17.9507 6.85505 19.4246 6.85505 20.8998ZM5.74097 20.9212C5.74097 19.1129 5.74097 17.3054 5.74031 15.4972C5.74031 14.993 5.61526 14.8666 5.12242 14.8666C3.99095 14.8666 2.85948 14.8666 1.72868 14.8666C1.24988 14.8666 1.11547 14.9997 1.11547 15.4778C1.1148 19.0935 1.1148 22.7093 1.11547 26.3257C1.11547 26.7858 1.25657 26.9276 1.70929 26.9282C2.84009 26.9289 3.97156 26.9282 5.10302 26.9282C5.61727 26.9282 5.74031 26.8052 5.74031 26.2896C5.74097 24.5001 5.74097 22.7106 5.74097 20.9212Z" fill="#3851B2"/>
<path fill-rule="evenodd" clip-rule="evenodd" d="M13.3933 0C13.6883 0.183897 13.7852 0.452054 13.7658 0.792431C13.7464 1.12478 13.7665 1.45847 13.7598 1.79149C13.7525 2.19139 13.5224 2.44617 13.1887 2.43748C12.8644 2.42878 12.6524 2.1827 12.6471 1.79417C12.6417 1.46115 12.6618 1.12679 12.641 0.795104C12.619 0.456065 12.7119 0.187241 13.0028 0C13.1339 0 13.2636 0 13.3933 0Z" fill="#3851B2"/>
<path fill-rule="evenodd" clip-rule="evenodd" d="M19.7898 2.32927C19.7784 2.50313 19.7122 2.64156 19.5892 2.75123C19.2722 3.03476 18.9586 3.32231 18.6336 3.59782C18.3634 3.82786 18.0251 3.80579 17.8184 3.56305C17.6145 3.32231 17.6372 3.00735 17.8933 2.77129C18.213 2.47705 18.5393 2.18884 18.8703 1.90731C19.0562 1.74882 19.2729 1.72608 19.4909 1.84044C19.6881 1.94409 19.7784 2.11862 19.7898 2.32927Z" fill="#3851B2"/>
<path fill-rule="evenodd" clip-rule="evenodd" d="M7.17789 1.77457C7.32702 1.76855 7.44872 1.83075 7.55505 1.92437C7.86801 2.19921 8.1823 2.47204 8.48857 2.75291C8.7594 3.001 8.79016 3.32065 8.58086 3.56406C8.3662 3.81349 8.02983 3.82285 7.74563 3.57676C7.42398 3.29791 7.10366 3.01772 6.79271 2.7275C6.60614 2.55296 6.55599 2.33094 6.669 2.09422C6.76931 1.88491 6.94317 1.77658 7.17789 1.77457Z" fill="#3851B2"/>
<path fill-rule="evenodd" clip-rule="evenodd" d="M5.71719 7.73511C5.47779 7.7204 5.23638 7.71171 4.99765 7.68763C4.68536 7.65687 4.48542 7.43686 4.48609 7.14062C4.48609 6.84772 4.69406 6.59428 4.99832 6.59227C5.47846 6.58826 5.95993 6.60966 6.4374 6.65446C6.74634 6.68322 6.93225 6.94602 6.90951 7.23759C6.88744 7.53048 6.66543 7.73778 6.35514 7.74581C6.14316 7.75183 5.92984 7.74648 5.71786 7.74648C5.71719 7.74247 5.71719 7.73912 5.71719 7.73511Z" fill="#3851B2"/>
<path fill-rule="evenodd" clip-rule="evenodd" d="M20.6613 7.74688C20.458 7.74688 20.2554 7.75089 20.0521 7.74621C19.7491 7.73819 19.5325 7.54761 19.5004 7.26942C19.4649 6.96582 19.6281 6.69499 19.9344 6.66356C20.4292 6.61274 20.9294 6.59067 21.427 6.59736C21.7299 6.60204 21.9238 6.86551 21.9145 7.16376C21.9051 7.44797 21.7085 7.65193 21.4089 7.6887C21.3721 7.69339 21.3353 7.69606 21.2986 7.69807C21.0866 7.71077 20.8739 7.72281 20.6619 7.73485C20.6619 7.73886 20.6619 7.74287 20.6613 7.74688Z" fill="#3851B2"/>
<path fill-rule="evenodd" clip-rule="evenodd" d="M4.10997 17.3973C4.11063 17.7116 3.85518 17.9671 3.54824 17.9584C3.25468 17.9503 3.00257 17.6942 3.00123 17.402C2.99923 17.0944 3.25735 16.8436 3.57165 16.849C3.87926 16.8536 4.1093 17.089 4.10997 17.3973Z" fill="#3851B2"/>
</svg>
