<svg width="16" height="22" viewBox="0 0 16 22" fill="none" xmlns="http://www.w3.org/2000/svg">
<path d="M7.5317 9.62C7.4317 9.61 7.3117 9.61 7.2017 9.62C4.8217 9.54 2.9317 7.59 2.9317 5.19C2.9317 2.74 4.9117 0.75 7.3717 0.75C9.8217 0.75 11.8117 2.74 11.8117 5.19C11.8017 7.59 9.9117 9.54 7.5317 9.62Z" stroke="#1F1F1F" stroke-width="1.5" stroke-linecap="round" stroke-linejoin="round"/>
<path d="M2.565 13.311C0.145 14.931 0.145 17.571 2.565 19.181C5.315 21.021 9.825 21.021 12.575 19.181C14.995 17.561 14.995 14.921 12.575 13.311C9.835 11.481 5.325 11.481 2.565 13.311Z" stroke="#1F1F1F" stroke-width="1.5" stroke-linecap="round" stroke-linejoin="round"/>
</svg>
