<svg width="28" height="26" viewBox="0 0 28 26" fill="none" xmlns="http://www.w3.org/2000/svg">
<path fill-rule="evenodd" clip-rule="evenodd" d="M16.5971 20.5421C17.3374 20.4711 17.9833 20.2318 18.6437 20.0585C20.1221 19.6709 21.5946 19.2583 23.076 18.8813C23.6811 18.7275 24.3054 18.7084 24.9211 18.8537C25.7961 19.0598 26.3605 19.727 26.3953 20.5829C26.431 21.4617 25.8849 22.2546 25.0414 22.5075C22.0153 23.416 18.9794 24.2931 15.9626 25.231C14.6623 25.6356 13.4915 25.5166 12.3267 24.8069C10.8211 23.8899 9.26916 23.0472 7.75377 22.1454C7.40913 21.9402 7.11208 21.8913 6.73175 22.0103C6.46742 22.0927 6.41346 22.1896 6.50865 22.428C6.56007 22.5581 6.58429 22.6991 6.61616 22.836C6.77297 23.5074 6.43215 24.0824 5.76497 24.2613C5.30305 24.3854 4.83942 24.5027 4.37452 24.6157C3.68694 24.7835 3.1141 24.4444 2.93434 23.7552C2.40612 21.7311 1.88343 19.7057 1.35861 17.6808C1.23622 17.2091 1.11256 16.737 0.992294 16.2645C0.809563 15.5476 1.14995 14.9696 1.86558 14.7805C2.32793 14.6581 2.79071 14.5353 3.25518 14.421C3.88157 14.2676 4.44294 14.5961 4.64649 15.2123C4.71491 15.4201 4.67581 15.7418 4.86067 15.8106C5.03362 15.8748 5.2869 15.7235 5.50447 15.667C6.80271 15.3295 8.08396 14.9275 9.39749 14.6513C10.4097 14.4388 11.3451 14.5969 12.2086 15.2084C13.2731 15.9615 14.3342 16.7243 15.4884 17.3417C15.6703 17.439 15.8538 17.5334 16.0383 17.626C17.1202 18.1674 17.4211 19.4062 16.708 20.3848C16.6817 20.4226 16.6553 20.46 16.5971 20.5421ZM10.3307 15.4655C9.99371 15.4681 9.74086 15.4944 9.49354 15.5522C8.05931 15.8854 6.64931 16.3108 5.22273 16.6733C4.99283 16.7319 5.07187 16.8577 5.10459 16.9831C5.41268 18.1721 5.72248 19.3607 6.03312 20.5489C6.08964 20.766 6.08751 21.0767 6.22902 21.1727C6.39476 21.2853 6.67183 21.1183 6.88558 21.041C7.24424 20.9113 7.53874 20.9742 7.8651 21.1663C9.56195 22.1667 11.2754 23.1381 12.9748 24.1329C13.7567 24.591 14.5577 24.7028 15.4327 24.4381C18.5459 23.4976 21.6647 22.5751 24.7809 21.644C25.2126 21.5148 25.4889 21.1204 25.4931 20.6411C25.4974 20.2097 25.2377 19.8796 24.7715 19.7529C24.2314 19.6055 23.6854 19.6505 23.1546 19.7899C21.3502 20.2637 19.545 20.7363 17.7513 21.2471C16.7709 21.5263 15.8504 21.4536 14.9321 21.0303C13.8383 20.5263 12.8277 19.877 11.7917 19.2723C11.5057 19.1049 11.4186 18.8507 11.5499 18.6174C11.691 18.3667 11.9485 18.3225 12.2583 18.5031C12.7283 18.7776 13.1928 19.0611 13.6645 19.3318C14.0627 19.5608 14.4613 19.7916 14.8714 19.9968C15.3843 20.2535 15.8509 20.1248 16.0901 19.6875C16.3281 19.2532 16.153 18.7147 15.6894 18.4632C15.3435 18.2758 14.9912 18.0994 14.6487 17.9052C13.5765 17.2984 12.5885 16.564 11.5716 15.8735C11.1691 15.6011 10.7306 15.4681 10.3307 15.4655ZM3.47531 15.2913C3.00701 15.4167 2.48814 15.5442 1.97692 15.6984C1.80566 15.7498 1.83711 15.9245 1.8728 16.0634C2.51194 18.5418 3.15362 21.0193 3.79403 23.4976C3.85267 23.7241 3.98143 23.7976 4.21303 23.7326C4.61887 23.6175 5.03022 23.5223 5.43818 23.4148C5.75562 23.3311 5.79387 23.2614 5.7093 22.9307C5.36126 21.5781 5.01195 20.2255 4.66306 18.8728C4.38174 17.7837 4.1 16.6945 3.81783 15.6058C3.77703 15.4494 3.74388 15.2845 3.47531 15.2913Z" fill="#3851B2"/>
<path fill-rule="evenodd" clip-rule="evenodd" d="M26.3978 4.10472C26.3723 4.30912 26.269 4.5148 26.1585 4.70646C25.9138 5.13354 25.8543 5.52365 26.1539 5.96985C26.337 6.24267 26.4169 6.58859 26.5198 6.90901C26.5652 7.05137 26.6328 7.12573 26.7713 7.17333C27.0726 7.27659 27.368 7.39728 27.6646 7.51287C27.8911 7.60126 28.0012 7.76359 27.9999 8.01176C27.9956 8.70784 27.9956 9.4035 27.9999 10.1C28.0012 10.349 27.8847 10.508 27.6599 10.5955C27.3544 10.7141 27.0488 10.8347 26.7399 10.9448C26.6205 10.9869 26.5614 11.0549 26.527 11.1764C26.3889 11.6651 26.1942 12.1326 25.9469 12.5762C25.8857 12.6859 25.8836 12.7764 25.9363 12.8877C26.0757 13.1848 26.2027 13.4873 26.3383 13.7865C26.4399 14.0104 26.4012 14.2042 26.2278 14.3772C25.7344 14.868 25.2415 15.3597 24.7511 15.8535C24.5679 16.0383 24.3682 16.0655 24.1358 15.9567C23.8468 15.8225 23.551 15.7026 23.2637 15.5645C23.149 15.5093 23.0593 15.5131 22.9493 15.5734C22.5052 15.8191 22.0399 16.0179 21.5495 16.1518C21.4186 16.1875 21.3519 16.2644 21.3073 16.3911C21.2019 16.6915 21.0778 16.9856 20.9669 17.2843C20.8806 17.5163 20.7204 17.623 20.4731 17.6217C19.777 17.6179 19.0809 17.617 18.3848 17.6221C18.1235 17.6238 17.9645 17.507 17.8779 17.2626C17.7742 16.9715 17.6509 16.6872 17.5489 16.3957C17.5009 16.2576 17.4223 16.1824 17.2816 16.1442C16.8095 16.0158 16.3603 15.8267 15.9337 15.587C15.8083 15.5165 15.7017 15.505 15.5669 15.5713C15.2814 15.712 14.9852 15.8318 14.6958 15.9648C14.4714 16.0681 14.2785 16.0303 14.1051 15.8565C13.6139 15.3639 13.1218 14.8718 12.628 14.381C12.4439 14.1979 12.4185 13.9964 12.5247 13.7644C12.673 13.4402 12.8965 13.1227 12.9348 12.7849C12.9739 12.4432 12.6501 12.1564 12.543 11.8206C12.5255 11.7671 12.4924 11.7165 12.4864 11.6621C12.4231 11.111 12.0734 10.8479 11.5681 10.7306C11.4411 10.7013 11.3208 10.6431 11.198 10.5968C10.9719 10.5114 10.8491 10.3511 10.8491 10.1055C10.8491 9.4001 10.8482 8.69467 10.8499 7.98967C10.8504 7.75679 10.966 7.59913 11.1814 7.51542C11.478 7.39983 11.7738 7.27956 12.0742 7.17418C12.2094 7.12701 12.2876 7.06241 12.3296 6.9141C12.4648 6.43475 12.653 5.9741 12.9008 5.5415C12.9692 5.42208 12.9692 5.32477 12.9123 5.20451C12.7763 4.91639 12.6547 4.62189 12.5217 4.33165C12.4151 4.09792 12.4512 3.89862 12.6343 3.71758C13.1222 3.23441 13.6083 2.74953 14.0911 2.26126C14.2721 2.0781 14.4684 2.03688 14.7039 2.14482C15.0362 2.29738 15.3698 2.55278 15.7063 2.55915C16.0272 2.5651 16.3527 2.30673 16.6769 2.16607C16.7458 2.13632 16.8155 2.09723 16.8877 2.08873C17.3879 2.03051 17.5838 1.69904 17.7287 1.25836C18.0011 0.430547 17.976 0.476442 18.8442 0.479417C19.3614 0.481116 19.879 0.487917 20.3957 0.476444C20.6996 0.470069 20.8933 0.586507 20.9945 0.878452C21.1079 1.20609 21.1747 1.58048 21.3833 1.83503C21.5869 2.08363 21.9974 2.06705 22.2995 2.21324C22.3922 2.25786 22.4993 2.28421 22.5774 2.34668C22.9574 2.64797 23.3126 2.54768 23.7091 2.3522C24.5352 1.94509 24.4557 1.95444 25.0936 2.59612C25.465 2.96924 25.8369 3.34235 26.2117 3.71248C26.3162 3.81617 26.3872 3.93133 26.3978 4.10472ZM15.7076 14.5467C15.9129 14.5391 16.017 14.6028 16.1228 14.6653C16.5686 14.9279 17.0326 15.1744 17.5375 15.2751C18.016 15.3707 18.2858 15.6155 18.3916 16.0736C18.4001 16.1102 18.415 16.145 18.4286 16.1798C18.6364 16.717 18.6368 16.7225 19.2054 16.7149C19.5411 16.7098 19.9482 16.8441 20.1917 16.66C20.4089 16.496 20.4484 16.0978 20.567 15.8025C20.5738 15.7851 20.5865 15.7698 20.5912 15.7519C20.652 15.5267 20.8122 15.4137 21.0281 15.3618C21.6438 15.2143 22.2209 14.97 22.7619 14.6441C22.9569 14.5263 23.1448 14.5174 23.3492 14.6139C23.6033 14.7333 23.8655 14.8366 24.1188 14.9589C24.2348 15.0155 24.3134 15.0206 24.4116 14.9165C24.6963 14.6169 24.9895 14.3241 25.2895 14.0398C25.3902 13.9442 25.3936 13.8664 25.338 13.7499C25.2164 13.4963 25.1161 13.2324 24.9899 12.9816C24.8807 12.7645 24.9011 12.5732 25.026 12.3718C25.2793 11.9639 25.5215 11.5342 25.6082 11.0685C25.7174 10.4816 26.0302 10.1884 26.5856 10.0295C27.107 9.8803 27.0985 9.84248 27.0951 9.30236C27.093 8.95602 27.198 8.53701 27.0408 8.28416C26.9022 8.06106 26.4692 8.01346 26.1598 7.90553C25.924 7.82351 25.7905 7.6786 25.7336 7.43297C25.6465 7.05816 25.5628 6.66168 25.3409 6.35486C24.8518 5.67918 24.8833 5.0358 25.3282 4.37287C25.4191 4.23731 25.3762 4.14551 25.2627 4.04012C25.0014 3.79662 24.7426 3.54845 24.5076 3.2803C24.3482 3.09927 24.2101 3.08015 24.0057 3.19871C23.8124 3.3109 23.5931 3.37677 23.3917 3.47621C23.1605 3.59137 22.951 3.58287 22.7279 3.44391C22.288 3.17066 21.8202 2.93396 21.3149 2.83198C20.8385 2.73551 20.5615 2.49626 20.4641 2.03008C20.4565 1.99396 20.4395 1.95954 20.4263 1.92427C20.2185 1.38457 20.2185 1.3833 19.6478 1.38542C19.3197 1.3867 18.9305 1.28768 18.6806 1.42962C18.4282 1.57368 18.4163 2.00289 18.2871 2.30163C18.2794 2.31905 18.2709 2.33563 18.2658 2.35347C18.1995 2.57403 18.0457 2.69131 17.8273 2.74358C17.2115 2.89104 16.6344 3.13454 16.0935 3.46176C15.8984 3.5799 15.7106 3.58967 15.5066 3.49406C15.2521 3.37549 14.9886 3.27393 14.7383 3.14772C14.6031 3.0793 14.5233 3.10437 14.4238 3.20934C14.1518 3.49533 13.8743 3.77708 13.5854 4.04565C13.4664 4.15656 13.463 4.24495 13.5314 4.38094C13.6529 4.62359 13.7473 4.88026 13.8667 5.12376C13.9725 5.34007 13.9534 5.53215 13.8285 5.73485C13.5569 6.17553 13.3138 6.63958 13.2144 7.14613C13.1167 7.64545 12.8528 7.92507 12.3709 8.02664C12.3441 8.03259 12.3199 8.05044 12.2935 8.06021C11.7542 8.26759 11.7525 8.26759 11.7547 8.83235C11.7559 9.16042 11.6565 9.55011 11.7989 9.79955C11.9425 10.0503 12.3743 10.0562 12.6692 10.1939C12.6947 10.2058 12.7227 10.2118 12.7491 10.2211C12.9394 10.2904 13.0572 10.4183 13.1056 10.6206C13.1999 11.0132 13.2798 11.4339 13.5136 11.7522C14.012 12.4317 13.9559 13.0726 13.528 13.7355C13.4388 13.8736 13.4796 13.9624 13.5926 14.067C13.8272 14.2841 14.0698 14.4987 14.2657 14.7482C14.4761 15.0163 14.672 15.0121 14.9525 14.8663C15.2134 14.7312 15.4794 14.5807 15.7076 14.5467Z" fill="#3851B2"/>
<path fill-rule="evenodd" clip-rule="evenodd" d="M5.67275 11.3277C5.45644 11.3277 5.24014 11.3272 5.02426 11.3277C4.77057 11.3281 4.57636 11.2235 4.51687 10.9694C4.41615 10.5385 4.15523 10.3252 3.73835 10.1671C3.39116 10.0349 3.12684 10.0133 2.80387 10.1884C2.45838 10.3758 2.33132 10.3333 2.05595 10.0596C1.7759 9.78125 1.5001 9.49865 1.21708 9.22328C1.02373 9.03587 0.962111 8.82254 1.10702 8.59052C1.33607 8.22463 1.29485 7.89912 1.12444 7.50136C0.972309 7.14737 0.791703 6.92724 0.427091 6.83885C0.116448 6.76321 -0.0118884 6.5588 0.000860226 6.23711C0.0161586 5.84275 0.0110593 5.44754 0.0021352 5.05276C-0.00381418 4.78291 0.0969005 4.57936 0.360373 4.51901C0.797228 4.42 1.00078 4.15142 1.16099 3.73922C1.29188 3.40265 1.31567 3.14768 1.14909 2.83194C0.944687 2.44395 0.980809 2.34579 1.28635 2.03982C1.55832 1.76657 1.83412 1.49715 2.10269 1.22093C2.29052 1.02842 2.50682 0.966804 2.73673 1.11171C3.10431 1.34374 3.43153 1.29402 3.82631 1.12914C4.18285 0.980828 4.37876 0.785773 4.48882 0.431785C4.60186 0.0684471 4.72722 0.00427757 5.1169 0.0030027C5.49299 0.00215279 5.86908 0.0110783 6.24474 0.000454367C6.53711 -0.00804476 6.75596 0.10202 6.8197 0.387166C6.91362 0.807448 7.17581 0.989327 7.56167 1.15166C7.92714 1.30549 8.21611 1.33227 8.5463 1.12786C8.80595 0.966805 9.03925 1.02205 9.25087 1.2477C9.52072 1.5354 9.80204 1.81332 10.088 2.08529C10.2916 2.27907 10.3613 2.50005 10.2159 2.74142C10.0005 3.10051 10.0226 3.4154 10.1926 3.80764C10.3485 4.168 10.5236 4.40597 10.9044 4.49436C11.2048 4.56406 11.3298 4.76761 11.3217 5.07486C11.3115 5.46964 11.3128 5.86442 11.3213 6.25921C11.3276 6.55158 11.2146 6.74663 10.9269 6.82993C10.8734 6.84565 10.8228 6.87497 10.7688 6.88814C10.4913 6.95444 10.2997 7.10317 10.2623 7.40446C10.2614 7.41339 10.2542 7.42147 10.2491 7.42954C9.98902 7.8324 9.96565 8.22761 10.2363 8.64619C10.3604 8.83742 10.2895 9.0431 10.1233 9.20628C9.81564 9.51013 9.5101 9.81652 9.20625 10.1242C9.03372 10.2988 8.82124 10.3622 8.61896 10.2313C8.22036 9.97332 7.86807 10.0405 7.45034 10.2219C7.13289 10.36 6.95909 10.5275 6.8554 10.8428C6.71219 11.2771 6.61402 11.3268 6.15252 11.3272C5.99231 11.3281 5.83253 11.3277 5.67275 11.3277ZM10.3932 5.65747C10.5359 5.31538 10.3175 5.20064 10.0328 5.12627C9.74212 5.05021 9.57596 4.86833 9.51435 4.56533C9.45825 4.29039 9.35711 4.01884 9.19818 3.78766C8.98358 3.4766 8.97848 3.17785 9.17566 2.87146C9.31334 2.65685 9.2683 2.5043 9.07367 2.34919C8.88754 2.20045 8.76472 1.92933 8.45578 2.14861C8.14174 2.37128 7.8379 2.32369 7.5179 2.11886C7.3084 1.985 7.06235 1.88471 6.81885 1.83244C6.47464 1.75892 6.24559 1.58554 6.18779 1.24388C6.1181 0.832945 5.81893 0.934082 5.55206 0.900085C5.24736 0.860564 5.19255 1.05222 5.13475 1.263C5.04976 1.57194 4.87 1.7619 4.53811 1.81884C4.35708 1.84986 4.16798 1.91701 4.01542 2.01772C3.57941 2.30457 3.15658 2.38106 2.68828 2.08316C2.47453 1.94718 2.43076 2.22978 2.30072 2.30669C2.03725 2.4635 2.00368 2.6747 2.17323 2.93223C2.35214 3.20505 2.32792 3.46937 2.14816 3.74432C1.97308 4.01161 1.86429 4.31461 1.79077 4.62695C1.73468 4.8662 1.59784 5.01239 1.36072 5.09908C0.902617 5.26651 0.920465 5.27756 0.900917 5.75606C0.891568 5.98936 0.955311 6.11685 1.18904 6.16869C1.55322 6.24901 1.76528 6.46701 1.83412 6.85287C1.88299 7.12739 2.0109 7.38874 2.16431 7.62502C2.31814 7.86172 2.33132 8.08057 2.20808 8.33724C2.01133 8.74648 2.03937 8.73713 2.34152 9.08262C2.52 9.2866 2.67638 9.30402 2.88546 9.17058C3.1876 8.97765 3.47317 8.9955 3.77532 9.19778C4.02392 9.36521 4.31289 9.46465 4.60653 9.5318C4.85938 9.59002 5.01066 9.7294 5.09906 9.97715C5.25969 10.4276 5.27116 10.4076 5.73691 10.4297C5.98679 10.4416 6.11895 10.3698 6.17037 10.1216C6.24474 9.76297 6.46954 9.56367 6.83542 9.49312C7.11165 9.44001 7.37342 9.32102 7.60842 9.16549C7.86509 8.99635 8.10902 8.98828 8.37334 9.13786C8.48553 9.20076 8.65934 9.31294 8.7235 9.27257C8.91771 9.15104 9.08047 8.9734 9.23897 8.80215C9.34989 8.68231 9.22708 8.56545 9.17396 8.47323C8.98485 8.14559 8.98953 7.84557 9.20625 7.5277C9.35881 7.30375 9.45868 7.04198 9.51052 6.77511C9.57214 6.45979 9.74765 6.27621 10.0506 6.20142C10.3307 6.13342 10.5113 5.99743 10.3932 5.65747Z" fill="#3851B2"/>
<path fill-rule="evenodd" clip-rule="evenodd" d="M3.50515 16.5671C3.51195 16.8254 3.31604 17.0358 3.05852 17.046C2.7908 17.0566 2.56685 16.8437 2.56812 16.5794C2.5694 16.3227 2.77337 16.1175 3.03217 16.1141C3.29097 16.1107 3.49877 16.3104 3.50515 16.5671Z" fill="#3851B2"/>
<path fill-rule="evenodd" clip-rule="evenodd" d="M24.0717 9.04489C24.0785 11.6006 21.9936 13.6982 19.4405 13.705C16.8823 13.7122 14.7923 11.6337 14.783 9.07464C14.7736 6.50918 16.8457 4.41117 19.3967 4.4031C21.9741 4.39503 24.0649 6.47093 24.0717 9.04489ZM23.1674 9.05679C23.172 6.99321 21.493 5.30953 19.429 5.30698C17.3642 5.30486 15.6873 6.98131 15.6864 9.04957C15.6856 11.1183 17.3591 12.799 19.4214 12.8019C21.482 12.8041 23.1627 11.1238 23.1674 9.05679Z" fill="#3851B2"/>
<path fill-rule="evenodd" clip-rule="evenodd" d="M5.67412 2.76063C7.26813 2.76445 8.57869 4.07969 8.57444 5.67073C8.56977 7.26346 7.25623 8.57445 5.66477 8.57488C4.05291 8.57573 2.7483 7.26049 2.75935 5.64693C2.76997 4.04017 4.06566 2.7568 5.67412 2.76063ZM5.66605 3.66409C4.55181 3.66324 3.6611 4.55394 3.66195 5.6686C3.6628 6.77944 4.56116 7.67567 5.67114 7.67185C6.75946 7.66802 7.66206 6.76796 7.67099 5.67753C7.67906 4.57817 6.76966 3.66494 5.66605 3.66409Z" fill="#3851B2"/>
</svg>
