<svg width="28" height="30" viewBox="0 0 28 30" fill="none" xmlns="http://www.w3.org/2000/svg">
<path fill-rule="evenodd" clip-rule="evenodd" d="M19.3467 24.6607C19.1722 24.6828 19.1118 24.7914 19.0317 24.8658C13.8989 29.6308 5.72418 28.6635 1.85422 22.8242C1.72029 22.622 1.63223 22.6093 1.45058 22.7322C1.25233 22.8666 1.03931 22.9797 0.829713 23.0962C0.357798 23.3578 -0.0165709 23.139 0.000565684 22.6017C0.0445935 21.2212 0.0954762 19.8408 0.148468 18.4607C0.199087 17.1433 0.256033 15.8264 0.310607 14.509C0.335652 13.9 0.657292 13.717 1.20514 14.0049C2.2763 14.5678 3.34642 15.1335 4.41706 15.698C4.50775 15.746 4.59897 15.7929 4.73422 15.8633C4.63667 15.2909 4.50696 14.7758 4.44948 14.2477C4.12547 11.2543 4.84626 8.53674 6.65641 6.13709C8.54407 3.63436 11.0684 2.16378 14.1699 1.69371C14.4483 1.65153 14.7322 1.61725 15.0127 1.62332C15.259 1.62859 15.3154 1.53763 15.2985 1.31301C15.2798 1.06334 15.2864 0.810778 15.2961 0.560057C15.3157 0.0662599 15.7024 -0.149924 16.1206 0.112397C18.4298 1.56031 20.7361 3.01243 23.04 4.46878C23.4858 4.75061 23.4845 5.14897 23.0398 5.43159C21.9646 6.11521 20.8837 6.7896 19.8057 7.46873C19.7553 7.50063 19.7089 7.53913 19.6217 7.60319C20.1954 7.80751 20.7429 7.96042 21.256 8.20323C25.0888 10.0165 27.3026 13.0328 27.8939 17.2208C28.2111 19.467 27.8072 21.6119 26.7927 23.6383C26.6951 23.8328 26.7081 23.9225 26.9053 24.0132C27.094 24.0997 27.2657 24.223 27.4491 24.3224C27.6769 24.4458 27.8944 24.5787 27.8818 24.8795C27.8699 25.16 27.6627 25.2834 27.442 25.3994C25.3274 26.5114 23.2146 27.6264 21.101 28.7408C20.8518 28.8721 20.6035 29.0055 20.3528 29.1341C19.8497 29.3925 19.5067 29.1971 19.4846 28.6335C19.4356 27.3999 19.3923 26.1661 19.3472 24.932C19.3441 24.85 19.3467 24.7677 19.3467 24.6607ZM21.2383 9.33267C21.2304 9.29787 21.2091 9.28231 21.1777 9.30156C21.1735 9.30419 21.1927 9.34532 21.2011 9.36852C22.9296 11.7041 23.5781 14.3083 23.1115 17.1767C22.8608 18.7169 22.2499 20.1142 21.323 21.3702C21.1268 21.6365 20.9064 21.6744 20.6087 21.5294C20.4846 21.4688 20.3818 21.3562 20.2104 21.3459C20.2955 23.5436 20.3799 25.7224 20.4659 27.9419C22.4432 26.8982 24.3748 25.8787 26.3361 24.8434C26.2124 24.7677 26.1341 24.7179 26.0542 24.6715C25.3954 24.2887 25.3648 24.1764 25.7292 23.516C26.3935 22.3122 26.8154 21.0243 26.9321 19.6576C27.2158 16.3386 26.1882 13.4787 23.8217 11.1236C23.0706 10.3764 22.222 9.75238 21.2383 9.33267ZM19.2246 21.9038C19.2191 21.9038 19.2136 21.9035 19.208 21.9035C19.208 21.6736 19.2128 21.4435 19.2067 21.2136C19.2004 20.9834 19.1772 20.7541 19.1722 20.5242C19.1608 20.004 19.5508 19.7733 20.009 20.0269C20.164 20.1126 20.3259 20.1912 20.4669 20.2969C20.6683 20.448 20.7743 20.4229 20.9154 20.1967C22.8038 17.1723 22.6849 13.1628 20.609 10.2657C20.1186 9.58128 19.5249 8.99943 18.9004 8.43708C18.6655 8.22591 18.5458 8.24963 18.3227 8.39596C17.6151 8.85891 16.8941 9.30129 16.1796 9.75423C15.9871 9.87656 15.7947 9.96962 15.5672 9.84307C15.3331 9.71284 15.2867 9.49744 15.2925 9.25436C15.2967 9.07667 15.2766 8.89687 15.2975 8.72155C15.3236 8.49746 15.2355 8.44156 15.0235 8.44077C11.2996 8.42891 8.53458 10.0564 6.72601 13.3026C6.26043 14.1386 6.02605 15.0571 5.82621 15.9919C5.74501 16.3711 5.86629 16.481 6.15444 16.6239C6.9016 16.9943 7.63715 17.3898 8.37113 17.7863C8.80719 18.0222 8.81509 18.4649 8.39723 18.7264C8.21162 18.8424 8.02602 18.9634 7.82724 19.0528C7.63636 19.1385 7.65798 19.2334 7.73681 19.3903C9.41197 22.7308 13.4726 24.7461 17.1456 24.0627C17.7839 23.9438 18.396 23.7437 19.0161 23.56C19.2666 23.4859 19.2966 23.396 19.2842 23.1888C19.2576 22.7609 19.2436 22.3322 19.2246 21.9038ZM1.02876 21.8131C1.17455 21.7335 1.27447 21.6818 1.37149 21.6254C1.9602 21.2837 2.10098 21.3188 2.44662 21.8956C5.14629 26.402 10.9073 28.1687 15.6605 25.9457C16.1553 25.7142 16.6383 25.4606 17.1277 25.0962C16.9969 25.1031 16.9339 25.1028 16.8719 25.1104C15.526 25.2715 14.1973 25.1819 12.901 24.7835C9.98486 23.8877 7.86678 22.0633 6.58259 19.2872C6.39462 18.8806 6.46106 18.6919 6.85045 18.4604C6.94114 18.4064 7.02999 18.3486 7.14863 18.2745C6.69306 18.0338 6.27888 17.8147 5.86418 17.5962C4.42523 16.8369 2.98418 16.0818 1.54919 15.3149C1.31138 15.1881 1.25549 15.2287 1.26208 15.4905C1.27052 15.8245 1.24336 16.1594 1.23044 16.4939C1.16454 18.2495 1.09757 20.0048 1.02876 21.8131ZM16.3444 1.43771C16.274 1.593 16.3025 1.71875 16.3017 1.84056C16.2972 2.46802 16.1728 2.60116 15.5508 2.60379C14.8472 2.60696 14.1475 2.66812 13.4681 2.84476C9.17892 3.95969 6.55676 6.7055 5.55941 11.006C5.35983 11.8665 5.31712 12.7513 5.41625 13.7217C5.46898 13.6118 5.48664 13.5786 5.50088 13.544C7.05214 9.80537 10.9548 7.12653 15.4696 7.45502C16.1764 7.50643 16.2808 7.5995 16.3019 8.2905C16.3035 8.34006 16.3135 8.38936 16.3241 8.47637C18.1957 7.29816 20.0425 6.13577 21.9248 4.95071C20.0359 3.76143 18.1943 2.60221 16.3444 1.43771Z" fill="#3851B2"/>
<path fill-rule="evenodd" clip-rule="evenodd" d="M21.201 9.3688C21.1926 9.3456 21.1736 9.30447 21.1775 9.30183C21.2089 9.28259 21.2303 9.29814 21.2382 9.33294C21.2263 9.34507 21.2139 9.3572 21.201 9.3688Z" fill="#3851B2"/>
<path fill-rule="evenodd" clip-rule="evenodd" d="M11.3235 18.9476C11.3235 18.7804 11.2992 18.6091 11.3277 18.4467C11.4445 17.7781 11.2249 17.2411 10.7762 16.7446C10.4134 16.3436 10.1144 15.8841 9.78884 15.4494C9.44769 14.9935 9.55815 14.6608 10.1094 14.4913C10.8365 14.268 11.5637 14.0431 12.2939 13.8301C12.4851 13.7745 12.6216 13.6803 12.7353 13.514C13.1708 12.8757 13.6177 12.2451 14.0635 11.6139C14.387 11.1557 14.7284 11.1557 15.054 11.6158C15.5064 12.2551 15.9559 12.8965 16.4009 13.5411C16.494 13.6761 16.5994 13.761 16.7634 13.809C17.514 14.0278 18.2598 14.2622 19.007 14.4923C19.5628 14.6637 19.6716 14.9869 19.3249 15.4512C18.8623 16.0708 18.4004 16.6906 17.9258 17.3009C17.808 17.4528 17.7682 17.6025 17.7732 17.7884C17.7927 18.5516 17.8008 19.3146 17.8146 20.0781C17.8251 20.6723 17.5446 20.8801 16.9822 20.6879C16.2522 20.439 15.5217 20.192 14.7959 19.932C14.6266 19.8714 14.4832 19.8735 14.3158 19.9333C13.5992 20.1885 12.8779 20.4303 12.1584 20.6771C11.5602 20.8822 11.3019 20.7003 11.3048 20.0773C11.3063 19.7011 11.305 19.3246 11.305 18.9481C11.3108 18.9476 11.3172 18.9476 11.3235 18.9476ZM14.557 12.6532C14.1608 13.219 13.7809 13.7433 13.4213 14.2814C13.2665 14.5132 13.0698 14.65 12.8065 14.7254C12.2555 14.8828 11.7116 15.066 11.1587 15.2166C10.9383 15.2767 10.9504 15.3397 11.0725 15.496C11.4263 15.9484 11.7601 16.4167 12.1165 16.867C12.2887 17.0845 12.3609 17.3107 12.3488 17.5885C12.324 18.1627 12.334 18.7385 12.3108 19.313C12.3016 19.5381 12.3725 19.5479 12.556 19.4817C13.1244 19.2764 13.6991 19.0889 14.2678 18.8841C14.4653 18.8131 14.6485 18.8131 14.8452 18.8833C15.4049 19.0823 15.9728 19.259 16.5277 19.4704C16.7742 19.5642 16.8046 19.4936 16.7969 19.2669C16.7771 18.6921 16.7879 18.1166 16.7655 17.5421C16.7558 17.2848 16.8314 17.0808 16.9875 16.8815C17.3479 16.4209 17.6909 15.9466 18.0481 15.4831C18.1544 15.3455 18.1884 15.2814 17.9717 15.2216C17.3996 15.0626 16.8383 14.8646 16.2665 14.7048C16.0181 14.6352 15.8452 14.5053 15.7028 14.2951C15.335 13.7515 14.9525 13.2174 14.557 12.6532Z" fill="#3851B2"/>
</svg>
