<svg width="76" height="81" viewBox="0 0 76 81" fill="none" xmlns="http://www.w3.org/2000/svg">
<g filter="url(#filter0_d_55_350)">
<path d="M37.8367 36.4025C37.7617 36.395 37.6717 36.395 37.5892 36.4025C35.8042 36.3425 34.3867 34.88 34.3867 33.08C34.3867 31.2425 35.8717 29.75 37.7167 29.75C39.5542 29.75 41.0467 31.2425 41.0467 33.08C41.0392 34.88 39.6217 36.3425 37.8367 36.4025Z" stroke="#1F1F1F" stroke-width="1.5" stroke-linecap="round" stroke-linejoin="round"/>
<path d="M34.1113 39.17C32.2962 40.385 32.2962 42.365 34.1113 43.5725C36.1738 44.9525 39.5563 44.9525 41.6188 43.5725C43.4338 42.3575 43.4338 40.3775 41.6188 39.17C39.5638 37.7975 36.1813 37.7975 34.1113 39.17Z" stroke="#1F1F1F" stroke-width="1.5" stroke-linecap="round" stroke-linejoin="round"/>
</g>
<defs>
<filter id="filter0_d_55_350" x="0" y="0" width="75.73" height="80.3574" filterUnits="userSpaceOnUse" color-interpolation-filters="sRGB">
<feFlood flood-opacity="0" result="BackgroundImageFix"/>
<feColorMatrix in="SourceAlpha" type="matrix" values="0 0 0 0 0 0 0 0 0 0 0 0 0 0 0 0 0 0 127 0" result="hardAlpha"/>
<feOffset dy="3"/>
<feGaussianBlur stdDeviation="16"/>
<feComposite in2="hardAlpha" operator="out"/>
<feColorMatrix type="matrix" values="0 0 0 0 0.698039 0 0 0 0 0.337255 0 0 0 0 0.905882 0 0 0 0.36 0"/>
<feBlend mode="normal" in2="BackgroundImageFix" result="effect1_dropShadow_55_350"/>
<feBlend mode="normal" in="SourceGraphic" in2="effect1_dropShadow_55_350" result="shape"/>
</filter>
</defs>
</svg>
