<svg width="76" height="80" viewBox="0 0 76 80" fill="none" xmlns="http://www.w3.org/2000/svg">
<path fill-rule="evenodd" clip-rule="evenodd" d="M23.1646 0C21.7354 0.58563 21.5772 0.836079 21.7372 2.44044C22.0969 6.04461 22.4698 9.64501 22.8426 13.2473C22.9481 14.2604 23.6222 14.8422 24.56 14.7537C25.4299 14.6728 25.9854 13.9497 25.8894 12.9705C25.509 9.15918 25.1098 5.35164 24.737 1.53846C24.6485 0.64589 24.0139 0.308821 23.3228 0C23.2701 0 23.2173 0 23.1646 0Z" fill="#D4DDFF"/>
<path fill-rule="evenodd" clip-rule="evenodd" d="M47.9533 55.5182C47.6633 55.9551 47.3658 56.4089 47.0626 56.8552C44.1232 61.1919 41.1875 65.5285 38.2405 69.8596C37.3291 71.1984 36.8244 72.654 37.024 74.2791C37.3837 77.1997 39.1029 79.1374 41.8729 79.8322C44.3491 80.4536 47.1229 79.3162 48.7272 76.9662C52.2975 71.7351 55.8508 66.4945 59.3929 61.2446C59.7356 60.738 59.9314 60.5723 60.5698 60.9301C66.3846 64.1953 73.883 61.092 75.4478 53.8573C76.3686 49.5998 74.8245 46.1029 71.2749 43.5683C69.1753 42.0694 67.0117 40.6628 64.8669 39.2298C64.462 38.9605 64.1815 38.6347 63.9649 38.196C60.0369 30.2118 56.0448 22.2597 52.1902 14.2398C51.0246 11.8144 48.6142 10.3889 45.7802 10.596C42.8785 10.8088 40.3646 12.0328 38.0032 13.607C32.8286 17.0549 28.8723 21.6665 25.5619 26.86C22.8446 31.1232 20.6847 35.6426 19.6396 40.6289C19.0954 43.2275 18.8657 45.8374 19.5549 48.4586C20.2611 51.1533 22.3983 53.4393 25.7954 53.637C33.0075 54.0607 40.2045 54.7461 47.4072 55.328C47.5823 55.3412 47.7782 55.3092 47.9533 55.5182ZM50.2337 19.3466C50.1583 21.3182 49.8119 23.2389 49.2225 25.1106C46.7651 32.9178 42.4002 39.5273 36.4761 45.1181C34.1524 47.31 31.582 49.1817 28.49 50.1854C27.6784 50.449 26.848 50.7296 25.9667 50.513C24.223 50.0856 23.1967 48.9143 22.709 47.2553C22.065 45.0635 22.3042 42.8584 22.7731 40.676C23.6374 36.6556 25.4225 33.0195 27.5617 29.5452C30.4522 24.847 33.8624 20.5894 38.2819 17.2225C40.2403 15.7311 42.323 14.4582 44.7559 13.8782C47.5673 13.206 49.5445 14.4827 50.0454 17.3242C50.1621 17.987 50.1734 18.6706 50.2337 19.3466ZM33.8718 51.1721C43.6618 44.0165 50.0661 34.6558 53.0225 22.9319C53.0714 23.011 53.1317 23.0939 53.175 23.1843C55.8 28.5321 58.4174 33.8857 61.0575 39.226C61.2684 39.6535 61.1799 39.9246 60.9407 40.2768C58.2668 44.1954 55.5966 48.114 52.9566 52.0553C52.6289 52.543 52.2956 52.6597 51.7458 52.6089C49.1999 52.3791 46.6483 52.1927 44.1006 51.9893C40.6998 51.7201 37.3008 51.447 33.8718 51.1721ZM72.6006 51.8613C72.5856 54.4279 70.9492 57.1772 68.6293 58.3616C66.138 59.6346 63.6994 59.4312 61.3814 57.8777C59.5416 56.6443 57.7169 55.3883 55.8866 54.1436C55.6569 53.9873 55.4027 53.9063 55.6719 53.5146C58.2046 49.8163 60.7204 46.1067 63.223 42.3895C63.4452 42.06 63.5977 42.0807 63.8877 42.2822C65.9026 43.6738 67.9683 44.9957 69.938 46.4494C71.7288 47.7657 72.5441 49.6487 72.6006 51.8613ZM40.0784 73.6859C40.0445 72.8611 40.3909 72.1776 40.8391 71.5166C44.2211 66.5378 47.5936 61.5553 50.9699 56.5727C51.6874 55.5144 52.2485 55.4071 53.3181 56.1302C54.4611 56.9041 55.5872 57.7063 56.7547 58.4426C57.2575 58.7589 57.2556 58.9774 56.9317 59.4444C54.7436 62.6192 52.5894 65.8166 50.4239 69.0065C48.9457 71.1833 47.4863 73.3733 45.9836 75.5332C45.1419 76.744 43.6825 77.194 42.3173 76.7515C40.9879 76.3241 40.084 75.0869 40.0784 73.6859Z" fill="#D4DDFF"/>
<path fill-rule="evenodd" clip-rule="evenodd" d="M16.5532 21.8246C17.3686 21.8114 17.862 21.4329 18.103 20.755C18.344 20.079 18.0748 19.4105 17.3743 18.9473C15.028 17.3937 12.676 15.8534 10.3241 14.3093C9.21308 13.5806 8.10397 12.8499 6.99108 12.1231C6.03825 11.5017 5.11367 11.6203 4.5883 12.4206C4.06857 13.2115 4.32467 14.1172 5.27373 14.7424C8.667 16.9776 12.0678 19.2015 15.463 21.4329C15.8207 21.6645 16.186 21.8509 16.5532 21.8246Z" fill="#D4DDFF"/>
<path fill-rule="evenodd" clip-rule="evenodd" d="M13.9642 28.9498C12.0171 29.2963 10.0719 29.6409 8.12481 29.9893C5.92352 30.3829 3.72222 30.7896 1.51716 31.1737C0.522907 31.347 -0.111678 32.0588 0.0163698 32.9156C0.150066 33.8232 0.995557 34.4182 1.98416 34.2469C4.31727 33.8401 6.64474 33.4052 8.97596 32.9871C10.6651 32.6839 12.356 32.3845 14.047 32.0851C14.755 31.9609 15.3313 31.6727 15.561 30.9195C15.7399 30.332 15.5685 29.8349 15.1693 29.4131C14.8511 29.076 14.4425 28.9178 13.9642 28.9498Z" fill="#D4DDFF"/>
<path fill-rule="evenodd" clip-rule="evenodd" d="M39.7262 25.6809C35.382 25.6922 32.2015 27.9406 31.0397 31.3376C29.8948 34.6819 30.9945 38.4028 33.7833 40.6116C34.0884 40.8527 34.3878 41.1107 34.787 41.1935C35.5214 41.346 36.2369 40.9977 36.5439 40.3424C36.8583 39.6664 36.6794 38.9282 35.9978 38.4122C34.7776 37.4895 33.9791 36.322 33.7852 34.7855C33.5178 32.6859 34.2409 30.9742 35.9545 29.7577C37.6963 28.5206 39.5756 28.449 41.4888 29.3962C41.7223 29.511 41.9351 29.6655 42.1686 29.7766C42.9425 30.14 43.7861 29.8764 44.1928 29.1551C44.592 28.4471 44.3887 27.5866 43.6712 27.1007C42.2721 26.1554 40.7261 25.6866 39.7262 25.6809Z" fill="#D4DDFF"/>
</svg>
