<svg width="30" height="22" viewBox="0 0 30 22" fill="none" xmlns="http://www.w3.org/2000/svg">
<path fill-rule="evenodd" clip-rule="evenodd" d="M0 10.1977C0.288173 9.5291 0.470444 8.82424 0.695399 8.13438C1.44709 5.83038 2.18541 3.52177 2.93018 1.21546C3.21858 0.322106 3.93821 -0.0505116 4.83203 0.231662C5.50966 0.445773 6.18406 0.669805 6.86216 0.88184C7.40943 1.05281 7.77859 1.39774 7.89764 1.9637C7.93617 2.14643 8.04323 2.10998 8.14982 2.11505C8.86045 2.14874 9.54616 1.98216 10.233 1.84142C11.6623 1.54863 13.0261 1.66607 14.2928 2.44775C14.3777 2.50036 14.449 2.53289 14.5558 2.46667C16.1875 1.45357 17.8586 1.53917 19.5598 2.28186C20.0667 2.50313 20.5724 2.73962 21.1248 2.83721C21.2108 2.85244 21.2983 2.86513 21.3855 2.86744C21.7719 2.87759 21.8026 2.84229 21.7412 2.47567C21.6231 1.77104 21.9729 1.14763 22.6489 0.889222C23.3487 0.621814 24.0526 0.36502 24.7575 0.110071C25.6042 -0.196098 26.3485 0.148602 26.6628 0.992817C27.5829 3.46432 28.5003 5.93698 29.4181 8.4094C29.5807 8.84731 29.7469 9.28407 29.9019 9.72475C30.1841 10.5263 29.8447 11.2662 29.048 11.5731C28.3491 11.8426 27.6466 12.1037 26.9417 12.3578C26.173 12.6351 25.4771 12.3428 25.1098 11.6049C25.0835 11.5521 25.0953 11.4404 25.0021 11.4607C24.8802 11.487 24.9568 11.5901 24.9644 11.6547C25.0288 12.2138 24.9635 12.7468 24.6486 13.2271C24.2241 13.8752 23.6256 14.0616 22.6879 13.8286C22.7447 14.5662 22.5243 15.1959 21.9337 15.6523C21.3492 16.1045 20.6926 16.1741 19.9864 15.9407C19.9896 16.2316 19.9875 16.5036 19.9065 16.7687C19.6675 17.5506 18.9991 18.0818 18.1297 18.1531C17.9613 18.1669 17.923 18.2043 17.9426 18.3706C18.0854 19.551 16.8418 20.7616 15.457 19.985C15.3246 19.9107 15.2307 19.8417 15.1209 20.0473C14.7603 20.7226 14.228 21.1739 13.4138 21.0904C12.5903 21.0059 12.0444 20.5099 11.733 19.7681C11.6393 19.5448 11.5703 19.5226 11.3525 19.5974C10.4504 19.9068 9.47902 19.4889 9.05772 18.6369C9.0238 18.5681 9.01942 18.4818 8.93336 18.4299C8.43592 18.7253 7.89995 18.8399 7.32291 18.6634C6.38641 18.3771 5.82321 17.4738 6.00295 16.5009C6.0424 16.287 5.98103 16.2907 5.81375 16.2902C4.31959 16.2854 3.42554 14.8191 4.09948 13.4832C4.24415 13.1962 4.40104 12.9154 4.55308 12.6323C4.60869 12.5287 4.67352 12.4277 4.61238 12.3017C4.53163 12.2689 4.49287 12.3437 4.44165 12.379C4.05311 12.6462 3.63481 12.7055 3.1879 12.5629C2.46481 12.3319 1.74265 12.0973 1.01956 11.8659C0.585344 11.727 0.273406 11.457 0.100595 11.0302C0.0807527 10.981 0.0754461 10.9114 0.000461192 10.901C-2.53502e-07 10.6666 0 10.4321 0 10.1977ZM14.3092 16.5262C14.2471 16.3566 14.0979 16.3527 14.0097 16.2738C13.8429 16.1248 13.7848 15.948 13.9001 15.7522C14.0116 15.5637 14.1848 15.4901 14.4008 15.5796C14.4813 15.613 14.5577 15.6569 14.635 15.6977C15.5726 16.1942 16.5089 16.6942 17.4486 17.187C17.9682 17.4595 18.4934 17.3769 18.8667 16.9787C19.3583 16.4542 19.2631 15.6165 18.6302 15.2346C18.0056 14.8576 17.3508 14.5309 16.7085 14.1839C16.4085 14.0217 16.1031 13.8704 15.8077 13.7001C15.5886 13.5737 15.5249 13.348 15.6395 13.151C15.7704 12.926 15.9642 12.8914 16.1917 12.9916C16.2627 13.0232 16.3308 13.0622 16.3991 13.0988C17.6261 13.7573 18.8551 14.4119 20.0789 15.0761C20.3961 15.2483 20.7214 15.3131 21.0636 15.2033C21.5209 15.0561 21.8049 14.7397 21.8649 14.2568C21.9307 13.7262 21.7168 13.3231 21.248 13.0668C20.0348 12.4034 18.8182 11.7457 17.6042 11.0835C17.3079 10.9217 17.2207 10.7249 17.3328 10.4995C17.4523 10.26 17.6835 10.2102 17.9793 10.3687C18.5033 10.649 19.024 10.9344 19.5468 11.2159C20.6359 11.8026 21.7212 12.3951 22.8157 12.971C23.5005 13.3312 24.0238 13.0513 24.1509 12.2867C24.236 11.7761 24.0983 11.3424 23.7268 10.9824C23.2672 10.5364 22.7211 10.2148 22.1727 9.89618C20.9681 9.19594 19.6599 8.68696 18.4751 7.95926C17.7525 7.51558 17.0631 7.46851 16.3047 7.72785C15.5867 7.97334 14.877 8.24628 14.1512 8.46616C12.4821 8.97214 11.2404 8.59929 10.2533 7.34623C10.0683 7.11089 10.0507 6.89886 10.2053 6.65337C10.3567 6.41319 10.5235 6.18431 10.7173 5.97781C11.6056 5.03 12.5227 4.11104 13.4834 3.23637C13.7123 3.02802 13.7169 3.03633 13.4297 2.89836C12.5109 2.45698 11.5523 2.42953 10.5696 2.60834C9.69797 2.76684 8.83369 2.99849 7.93433 2.92143C7.77997 2.90828 7.76475 3.00541 7.73106 3.11039C6.98583 5.42685 6.23621 7.74169 5.49466 10.0591C5.36915 10.4513 5.29163 10.8551 5.34354 11.2934C6.79709 10.045 8.45369 11.0982 8.61588 12.4782C8.63896 12.6734 8.75709 12.594 8.84707 12.5813C9.93423 12.43 10.8677 13.1249 11.0232 14.2139C11.0454 14.3676 11.0655 14.4213 11.2517 14.3874C12.2643 14.2012 13.1877 14.821 13.4433 15.8237C13.501 16.0496 13.4599 16.281 13.5033 16.5066C13.7737 16.4522 14.0284 16.4418 14.3092 16.5262ZM17.2818 2.51674C16.3126 2.51766 15.5849 2.756 14.931 3.18814C13.45 4.16664 12.3003 5.50368 11.0973 6.78188C10.9898 6.89609 11.0011 6.97938 11.1093 7.09659C11.8252 7.87228 12.6978 8.01602 13.6791 7.76199C14.4539 7.56127 15.182 7.22672 15.9425 6.98538C16.5804 6.78281 17.2244 6.65245 17.8983 6.79711C18.3409 6.89217 18.6802 7.18288 19.0681 7.38107C20.0738 7.89443 21.0897 8.38841 22.0848 8.92138C22.9608 9.39067 23.8348 9.87334 24.5025 10.64C24.5494 10.694 24.5921 10.7411 24.674 10.6943C24.7787 10.6345 24.7213 10.5653 24.6952 10.4951C24.4345 9.79282 24.1738 9.0905 23.9133 8.38818C23.3448 6.85571 22.774 5.32418 22.2117 3.78941C22.1459 3.60991 22.0795 3.55592 21.8818 3.62052C21.6317 3.70243 21.3666 3.69527 21.0998 3.65743C20.4829 3.56953 19.9259 3.31066 19.359 3.07924C18.635 2.78369 17.9055 2.51259 17.2818 2.51674ZM0.812144 10.4744C0.826218 10.8055 0.976188 10.9953 1.25952 11.0874C1.95353 11.3126 2.64593 11.5428 3.34087 11.7653C3.80854 11.915 4.07756 11.7731 4.23215 11.2955C5.17511 8.37941 6.11669 5.4633 7.05689 2.5465C7.20801 2.07768 7.06335 1.80265 6.5936 1.64922C5.93719 1.43488 5.27986 1.22331 4.6223 1.0122C4.11933 0.850692 3.85653 0.989356 3.69133 1.50064C2.75806 4.38906 1.82456 7.27725 0.892436 10.1659C0.856905 10.2764 0.833832 10.3908 0.812144 10.4744ZM25.2452 0.807546C25.2115 0.804778 25.111 0.840771 25.0097 0.878609C24.3445 1.12733 23.6779 1.37166 23.0137 1.62246C22.5654 1.79181 22.4369 2.06799 22.6037 2.51789C23.6712 5.40055 24.7406 8.28251 25.8121 11.164C25.9805 11.6169 26.2579 11.7433 26.708 11.5784C27.3566 11.3407 28.0026 11.0966 28.6493 10.8541C29.174 10.6573 29.2921 10.4035 29.099 9.88372C28.5296 8.35172 27.959 6.82041 27.3898 5.28841C26.8947 3.95691 26.3984 2.62633 25.9086 1.29322C25.8047 1.01012 25.6398 0.823235 25.2452 0.807546ZM6.78533 16.8029C6.78879 17.3631 7.08688 17.7516 7.59078 17.8916C8.07738 18.0266 8.57758 17.8245 8.83369 17.3584C9.26006 16.5828 9.6749 15.8006 10.0847 15.0162C10.3862 14.4393 10.2009 13.7903 9.66706 13.4998C9.11724 13.2006 8.47007 13.4057 8.15098 13.9924C7.73729 14.7527 7.33237 15.518 6.92422 16.2817C6.83101 16.4561 6.77495 16.6407 6.78533 16.8029ZM5.87628 15.4785C6.18753 15.4723 6.51654 15.2983 6.71703 14.9407C7.05458 14.3387 7.38082 13.7299 7.69068 13.1129C7.96155 12.5739 7.74606 11.9773 7.19694 11.6661C6.73342 11.4033 6.07609 11.5673 5.79137 12.0581C5.43537 12.6713 5.09413 13.2956 4.78773 13.9352C4.43657 14.6682 4.97046 15.4781 5.87628 15.4785ZM11.4602 15.1691C11.2046 15.173 10.8754 15.3191 10.6818 15.6536C10.3558 16.2161 10.042 16.7883 9.76304 17.3755C9.52493 17.8769 9.7485 18.4814 10.2155 18.7412C10.7074 19.0148 11.3536 18.9048 11.6434 18.4318C11.9981 17.8533 12.3278 17.2537 12.6009 16.6335C12.9083 15.9358 12.3536 15.1689 11.4602 15.1691ZM13.9373 17.2784C13.1918 17.2807 12.28 18.4124 12.4014 19.186C12.4074 19.2245 12.4136 19.2631 12.4223 19.3011C12.5313 19.7681 12.98 20.2118 13.4098 20.2773C13.8388 20.3426 14.1454 20.1518 14.4347 19.6181C14.6015 19.3106 14.7693 19.0012 14.9026 18.6786C15.2102 17.9339 14.7494 17.2761 13.9373 17.2784ZM15.4123 17.1342C15.7281 17.448 15.8654 17.8261 15.838 18.2659C15.8223 18.5118 15.7572 18.7432 15.6686 18.9712C15.6409 19.042 15.5659 19.123 15.6885 19.1918C15.9736 19.3514 16.2625 19.4989 16.5977 19.363C16.9385 19.225 17.1116 18.9474 17.1422 18.5956C17.178 18.184 16.9736 17.8868 16.624 17.6884C16.3116 17.511 15.9926 17.3455 15.6767 17.1743C15.5996 17.1328 15.5237 17.085 15.4123 17.1342Z" fill="#3851B2"/>
</svg>
