<svg width="91" height="97" viewBox="0 0 91 97" fill="none" xmlns="http://www.w3.org/2000/svg">
<path fill-rule="evenodd" clip-rule="evenodd" d="M61.9585 82.4602C60.9331 82.5818 59.9987 83.0265 59.0074 83.2824C55.55 84.1741 52.0537 84.7193 48.4729 84.6025C47.9943 84.5869 47.9231 84.7172 47.9445 85.1618C48.0289 87.0063 47.201 88.3525 45.5633 89.1701C42.7075 90.5953 39.8367 91.9901 36.9715 93.3922C34.4922 94.6048 32.2027 93.8146 30.9726 91.316C29.179 87.6771 27.3967 84.0328 25.6087 80.3891C23.1456 75.3697 20.6809 70.3511 18.2195 65.3309C16.8889 62.6154 17.649 60.4142 20.3693 59.0773C23.0792 57.7475 25.7891 56.4177 28.4974 55.0887C30.5058 54.1032 32.0887 54.32 33.7919 55.8511C34.6608 54.2443 35.275 52.5598 35.7213 50.8126C36.7808 46.642 36.4376 42.4922 35.5182 38.3508C35.0111 36.0579 34.2554 33.8334 33.6835 31.5584C33.5215 30.9165 33.426 30.248 33.3878 29.587C33.2427 27.1206 34.6121 25.3715 37.0384 24.8446C40.5443 24.0841 43.4516 25.2786 45.9962 27.605C48.3981 29.8027 49.7794 32.5649 50.3884 35.7417C50.83 38.0429 51.3195 40.3364 51.7428 42.6406C51.8501 43.2239 52.0272 43.2244 52.4973 42.9917C57.621 40.4616 62.7501 37.9427 67.8847 35.435C70.5922 34.1124 73.5368 34.6905 75.399 36.9424C76.7725 38.6034 77.1308 40.5162 76.5138 42.5797C76.3788 43.0255 76.4136 43.1813 76.8814 43.3571C79.9439 44.5034 81.4992 47.6729 80.5431 50.815C80.4016 51.2759 80.478 51.4073 80.9228 51.5766C84.9819 53.13 86.1759 58.1024 83.2572 61.3272C82.8703 61.7536 82.9739 61.8676 83.3698 62.1682C86.6441 64.6453 86.5615 69.5188 83.2287 71.8836C83.183 71.9159 83.1736 72.0021 83.1476 72.0625C76.0862 75.5276 69.0215 78.9943 61.9585 82.4602ZM40.9806 70.2049C42.6805 73.6691 44.4069 77.1224 46.0588 80.6103C46.3848 81.2989 46.8018 81.5533 47.5028 81.5888C52.7444 81.8545 57.8201 81.053 62.572 78.8225C68.7076 75.9409 74.7559 72.8776 80.8388 69.8886C82.599 69.0249 83.2768 67.2595 82.4854 65.6427C81.6916 64.0211 79.8893 63.4747 78.1213 64.3224C77.3414 64.6971 76.5748 65.1071 75.78 65.4475C74.9507 65.8027 74.1121 65.3895 73.8224 64.54C73.5678 63.7945 73.9314 63.0776 74.8148 62.6381C76.6519 61.7247 78.5111 60.8482 80.3325 59.9027C81.6445 59.2192 82.1879 57.7144 81.7342 56.2837C81.3016 54.9201 79.9717 54.0405 78.537 54.1582C78.0045 54.2029 77.5401 54.4269 77.074 54.6556C75.4084 55.4729 73.7466 56.2983 72.0755 57.1044C71.0713 57.5892 70.2141 57.3164 69.8369 56.4343C69.5106 55.6723 69.8146 54.923 70.6795 54.4906C72.4711 53.5936 74.2854 52.743 76.069 51.83C77.7029 50.9925 78.3247 49.1492 77.539 47.6211C76.74 46.0656 74.9441 45.5081 73.2833 46.3151C71.5473 47.1591 69.8182 48.0174 68.0846 48.8622C67.0868 49.3479 66.2729 49.1471 65.8561 48.3302C65.4205 47.4748 65.7549 46.7026 66.792 46.1917C68.5458 45.3271 70.3058 44.4794 72.0525 43.6044C73.4179 42.9204 74.1006 41.4726 73.7462 40.0904C73.2221 38.0464 71.156 37.1485 69.166 38.123C63.4099 40.9396 57.6593 43.7675 51.9072 46.5881C50.4177 47.319 49.5815 46.8947 49.257 45.2654C48.651 42.2163 48.045 39.1671 47.4342 36.1202C47.0151 34.0187 46.1868 32.104 44.7242 30.5205C43.1737 28.843 41.3896 27.5603 38.9629 27.6084C36.5435 27.655 36.0103 28.322 36.5408 30.6869C37.0327 32.8799 37.7564 35.0108 38.3034 37.1907C40.1863 44.6927 39.6906 51.8874 35.6923 58.6586C35.4636 59.0431 35.6372 59.3077 35.7873 59.6136C37.5147 63.1418 39.2468 66.6718 40.9806 70.2049ZM38.3375 71.5655C36.2123 67.2348 34.088 62.9056 31.9613 58.5757C31.3687 57.3681 30.9206 57.2124 29.7403 57.7916C27.0304 59.1214 24.3204 60.4512 21.6121 61.7802C20.4654 62.3429 20.2999 62.8196 20.8618 63.9647C25.1097 72.6253 29.3592 81.2852 33.611 89.9458C34.1518 91.0477 34.6563 91.2214 35.7414 90.691C38.4505 89.3636 41.1596 88.0322 43.8695 86.7024C45.1011 86.098 45.2512 85.6587 44.6452 84.4239C42.5437 80.1372 40.4406 75.8514 38.3375 71.5655Z" fill="#F42330" fill-opacity="0.1"/>
<path fill-rule="evenodd" clip-rule="evenodd" d="M32.0769 12.4662C32.9994 12.56 33.5468 13.0883 33.9003 13.9263C34.2445 14.7451 34.6847 15.5207 35.0601 16.3261C35.5125 17.2925 35.2609 18.1731 34.4515 18.5445C33.6645 18.9048 32.8676 18.5646 32.3982 17.6403C31.994 16.849 31.6491 16.0246 31.2096 15.2546C30.7583 14.4685 30.665 13.7155 31.1416 12.9251C31.4555 12.7711 31.7662 12.6186 32.0769 12.4662Z" fill="#F42330" fill-opacity="0.1"/>
<path fill-rule="evenodd" clip-rule="evenodd" d="M50.135 10.5265C50.3121 10.9563 50.3163 11.3656 50.1505 11.7729C49.7245 12.8245 49.3113 13.8818 48.8567 14.9236C48.4801 15.792 47.6437 16.1368 46.8635 15.7983C46.0921 15.4614 45.7764 14.6804 46.1124 13.814C46.5321 12.7336 46.975 11.6598 47.4369 10.5965C47.6959 9.99844 48.1881 9.68936 48.8446 9.70702C49.4389 9.72342 49.8602 10.0353 50.135 10.5265Z" fill="#F42330" fill-opacity="0.1"/>
<path fill-rule="evenodd" clip-rule="evenodd" d="M19.2775 24.0214C19.6276 23.8318 19.9921 23.8377 20.3568 23.9369C21.4294 24.2274 22.5028 24.5115 23.5664 24.8242C24.5066 25.1001 24.956 25.8295 24.7408 26.6585C24.5198 27.5081 23.7252 27.9259 22.7553 27.6705C21.6572 27.3807 20.5607 27.0861 19.4749 26.7564C18.8229 26.5577 18.4419 26.0849 18.4343 25.3851C18.4286 24.7659 18.7177 24.3021 19.2775 24.0214Z" fill="#F42330" fill-opacity="0.1"/>
<path fill-rule="evenodd" clip-rule="evenodd" d="M22.7829 40.0135C22.1922 40.2596 21.6038 40.5225 21.0037 40.7455C20.2196 41.0388 19.4822 40.7469 19.1356 40.0366C18.7914 39.3351 18.9916 38.4837 19.718 38.1213C20.8632 37.5474 22.0415 37.0327 23.2377 36.5789C24.0114 36.2847 24.7656 36.6956 25.0538 37.4206C25.3452 38.1481 25.0571 38.9055 24.3233 39.2894C23.8227 39.5529 23.3055 39.7908 22.7978 40.04C22.7915 40.0311 22.7876 40.0231 22.7829 40.0135Z" fill="#F42330" fill-opacity="0.1"/>
<path fill-rule="evenodd" clip-rule="evenodd" d="M58.5889 22.4772C58.102 22.7162 57.6214 22.9639 57.1291 23.1916C56.3941 23.5284 55.6512 23.3266 55.2474 22.6981C54.8057 22.0126 54.8782 21.1722 55.5748 20.7369C56.7002 20.0336 57.8723 19.3929 59.0717 18.8242C59.8028 18.4794 60.5769 18.8825 60.905 19.6078C61.2166 20.2995 60.9854 21.019 60.3111 21.4592C60.2285 21.5137 60.1436 21.5633 60.0578 21.6113C59.5651 21.8909 59.0699 22.1697 58.5764 22.4476C58.5811 22.4572 58.5858 22.4668 58.5889 22.4772Z" fill="#F42330" fill-opacity="0.1"/>
<path fill-rule="evenodd" clip-rule="evenodd" d="M30.2902 65.0436C30.6611 65.7956 30.3495 66.7076 29.6042 67.0475C28.8917 67.3733 27.9868 67.0562 27.6402 66.3579C27.2739 65.6235 27.5974 64.7195 28.3564 64.363C29.0986 64.0126 29.9262 64.3061 30.2902 65.0436Z" fill="#F42330" fill-opacity="0.1"/>
</svg>
