<svg width="305" height="242" viewBox="0 0 305 242" fill="none" xmlns="http://www.w3.org/2000/svg">
<path d="M272.181 83.9615L294.505 81.2404C295.463 81.1236 295.716 79.8516 294.875 79.377L274.091 67.6407C273.74 67.4426 273.542 67.0534 273.589 66.6533L275.519 50.2236C275.619 49.3657 274.659 48.7923 273.951 49.2882L258.755 59.945C258.39 60.2008 257.9 60.1845 257.553 59.9049L246.008 50.6C245.216 49.9611 244.087 50.7771 244.445 51.7301L252.793 73.9604C252.956 74.394 252.8 74.8826 252.416 75.1414L233.735 87.7252C232.921 88.2736 233.302 89.5442 234.283 89.5545L257.678 89.8003C258.048 89.8042 258.386 90.0126 258.556 90.3418L266.083 104.936C266.524 105.79 267.798 105.592 267.958 104.644L271.316 84.7874C271.39 84.351 271.742 84.015 272.181 83.9615Z" stroke="#D4DDFF" stroke-width="2"/>
<path d="M244.679 119.58C238.237 131.943 213.591 152.949 166.542 138.071C117.995 122.72 86.4492 111.78 63.7861 138.397C52.6424 151.485 46.2624 171.686 56.8821 185.202C61.9783 191.689 70.6378 195.971 84.7655 193.854C122.567 188.189 91.911 149.674 74.3187 143.165C56.7264 136.655 17.7267 124.14 -12.6889 150.246" stroke="#D4DDFF" stroke-width="2"/>
</svg>
