<svg width="18" height="18" viewBox="0 0 18 18" fill="none" xmlns="http://www.w3.org/2000/svg">
<path fill-rule="evenodd" clip-rule="evenodd" d="M17.0584 17.0548C17.0171 17.0631 17.0171 17.1043 17.0047 17.1291C16.8768 17.3644 16.6827 17.48 16.4144 17.48C15.5393 17.48 14.6641 17.48 13.7889 17.48C13.3555 17.48 13.1161 17.2406 13.1161 16.8071C13.1161 14.871 13.1161 12.9308 13.1161 10.9947C13.1161 10.7924 13.1037 10.5901 13.0707 10.3879C12.9881 9.84708 12.6372 9.53334 12.1666 9.34345C11.4524 9.05035 10.7341 9.27327 10.2842 9.90075C10.1025 10.1526 10.0158 10.4415 9.99521 10.747C9.98695 10.842 9.98695 10.9328 9.98695 11.0277C9.98695 12.9638 9.98695 14.904 9.98695 16.8401C9.98695 17.2612 9.77229 17.4841 9.35122 17.4841C8.3646 17.4841 7.38211 17.4841 6.39549 17.4841C5.9703 17.4841 5.75977 17.2695 5.75977 16.8443C5.75977 13.4262 5.75977 10.0081 5.75977 6.58998C5.75977 6.14001 5.97443 5.92535 6.42439 5.92535C7.29542 5.92535 8.16233 5.93773 9.03336 5.91709C9.38425 5.90883 9.74339 6.18129 9.70211 6.59823C9.69386 6.67667 9.70211 6.75923 9.70211 6.83354C9.75991 6.84592 9.77229 6.80877 9.79293 6.78813C10.5442 6.02029 11.4689 5.66527 12.5299 5.63638C13.1532 5.61987 13.7766 5.62812 14.371 5.83866C15.7622 6.3299 16.6126 7.30828 16.9593 8.73661C17.0006 8.89761 16.9882 9.07099 17.0584 9.22786C17.0584 11.8368 17.0584 14.4458 17.0584 17.0548ZM9.16546 8.25362C9.16546 8.19995 9.16546 8.14628 9.16546 8.09262C9.16546 7.60963 9.16133 7.12251 9.16958 6.63952C9.16958 6.52393 9.14894 6.47852 9.01684 6.47852C8.17471 6.48677 7.33258 6.48264 6.49044 6.47852C6.37485 6.47852 6.34596 6.51154 6.34596 6.623C6.35009 10.0039 6.35009 13.3808 6.34596 16.7617C6.34596 16.8897 6.38724 16.9145 6.50283 16.9145C7.41514 16.9103 8.33158 16.9062 9.24389 16.9145C9.40901 16.9145 9.4503 16.8773 9.4503 16.708C9.44204 14.7967 9.4503 12.8895 9.44617 10.9782C9.44617 10.3672 9.60716 9.81818 10.0158 9.35583C10.9612 8.28664 12.7982 8.48067 13.4422 9.72737C13.6403 10.1113 13.6734 10.5282 13.6734 10.9452C13.6816 12.8771 13.6899 14.8091 13.694 16.7411C13.694 16.8773 13.7311 16.9145 13.8674 16.9145C14.6806 16.9062 15.498 16.9062 16.3112 16.9145C16.4557 16.9145 16.497 16.8814 16.497 16.7328C16.4929 14.3922 16.4929 12.0556 16.4929 9.71498C16.4929 9.40537 16.4681 9.09989 16.3897 8.79853C16.0883 7.63853 15.3948 6.82528 14.2678 6.39595C13.7229 6.18955 13.1491 6.18542 12.5753 6.19781C11.5309 6.22258 10.664 6.61475 9.99108 7.43625C9.75578 7.7376 9.4503 7.98116 9.16546 8.25362Z" fill="white" stroke="white" stroke-width="0.3"/>
<path fill-rule="evenodd" clip-rule="evenodd" d="M0.149902 2.0606C0.207696 2.01519 0.19944 1.94501 0.211824 1.88309C0.575098 0.376314 2.34606 -0.333724 3.63816 0.512545C4.39773 1.00792 4.7899 1.90786 4.62478 2.78302C4.4514 3.71185 3.75787 4.43428 2.8662 4.62417C1.63189 4.88424 0.430615 4.06687 0.187056 2.80366C0.182928 2.77477 0.191183 2.73348 0.149902 2.7211C0.149902 2.50231 0.149902 2.27939 0.149902 2.0606ZM4.09225 2.3991C4.08399 1.4455 3.3368 0.718952 2.42036 0.718952C1.44613 0.72308 0.698942 1.48266 0.715454 2.41974C0.731966 3.40224 1.48741 4.11228 2.51118 4.0999C3.35745 4.09577 4.1005 3.29491 4.09225 2.3991Z" fill="white" stroke="white" stroke-width="0.3"/>
<path fill-rule="evenodd" clip-rule="evenodd" d="M4.37687 11.7207C4.37687 13.3266 4.37687 14.9366 4.37687 16.5424C4.37687 17.1162 4.01773 17.4754 3.43979 17.4795C2.7504 17.4795 2.06513 17.4795 1.37574 17.4795C0.789543 17.4795 0.430398 17.1204 0.430398 16.5342C0.430398 13.3101 0.434526 10.086 0.42627 6.8578C0.42627 6.24683 0.83908 5.90007 1.36748 5.91658C2.061 5.94135 2.75452 5.92071 3.44805 5.92071C4.0136 5.92071 4.37274 6.28398 4.37274 6.84954C4.37687 8.47603 4.37687 10.0984 4.37687 11.7207ZM3.81545 11.7084C3.81545 10.0943 3.81545 8.48428 3.81545 6.87018C3.81545 6.58534 3.71225 6.48213 3.42741 6.48213C2.74627 6.48213 2.061 6.48213 1.37986 6.48213C1.08264 6.48213 1.00008 6.5647 1.00008 6.86192C1.00008 10.0819 1.00008 13.2977 1.00008 16.5176C1.00008 16.8025 1.10328 16.9057 1.38399 16.9098C2.06513 16.9098 2.7504 16.9098 3.43153 16.9098C3.72463 16.9098 3.81545 16.8149 3.81545 16.5259C3.81545 14.9242 3.81545 13.3183 3.81545 11.7084Z" fill="white" stroke="white" stroke-width="0.3"/>
</svg>
