<svg width="28" height="28" viewBox="0 0 28 28" fill="none" xmlns="http://www.w3.org/2000/svg">
<path d="M22.1663 10.4999C22.1663 12.1916 21.6647 13.7433 20.8013 15.0383C19.5413 16.9049 17.5463 18.2233 15.2247 18.5616C14.828 18.6316 14.4197 18.6666 13.9997 18.6666C13.5797 18.6666 13.1713 18.6316 12.7747 18.5616C10.453 18.2233 8.45801 16.9049 7.19801 15.0383C6.33467 13.7433 5.83301 12.1916 5.83301 10.4999C5.83301 5.98492 9.48467 2.33325 13.9997 2.33325C18.5147 2.33325 22.1663 5.98492 22.1663 10.4999Z" stroke="#3851B2" stroke-width="2" stroke-linecap="round" stroke-linejoin="round"/>
<path d="M24.7917 21.5483L22.8667 22.0033C22.435 22.1083 22.0967 22.435 22.0033 22.8667L21.595 24.5817C21.3733 25.515 20.1833 25.795 19.565 25.06L14 18.6667L8.43501 25.0717C7.81668 25.8067 6.62668 25.5266 6.40501 24.5933L5.99668 22.8783C5.89168 22.4466 5.55334 22.1083 5.13334 22.015L3.20834 21.56C2.32168 21.35 2.00668 20.2416 2.64834 19.6L7.19834 15.05C8.45834 16.9167 10.4533 18.235 12.775 18.5733C13.1717 18.6433 13.58 18.6783 14 18.6783C14.42 18.6783 14.8283 18.6433 15.225 18.5733C17.5467 18.235 19.5417 16.9167 20.8017 15.05L25.3517 19.6C25.9933 20.23 25.6783 21.3383 24.7917 21.5483Z" stroke="#3851B2" stroke-width="2" stroke-linecap="round" stroke-linejoin="round"/>
<path d="M14.6763 6.97675L15.3646 8.35341C15.458 8.54007 15.703 8.72675 15.9246 8.76175L17.173 8.97174C17.9663 9.10007 18.153 9.68341 17.5813 10.2551L16.613 11.2234C16.4496 11.3867 16.3563 11.7017 16.4146 11.9351L16.6946 13.1367C16.9163 14.0817 16.4146 14.4551 15.5746 13.9534L14.408 13.2651C14.198 13.1367 13.848 13.1367 13.638 13.2651L12.4713 13.9534C11.6313 14.4434 11.1296 14.0817 11.3513 13.1367L11.6313 11.9351C11.678 11.7134 11.5963 11.3867 11.433 11.2234L10.4646 10.2551C9.89298 9.68341 10.0796 9.11174 10.873 8.97174L12.1213 8.76175C12.3313 8.72675 12.5763 8.54007 12.6696 8.35341L13.358 6.97675C13.6963 6.23008 14.303 6.23008 14.6763 6.97675Z" stroke="#3851B2" stroke-width="2" stroke-linecap="round" stroke-linejoin="round"/>
</svg>
