<svg width="46" height="46" viewBox="0 0 46 46" fill="none" xmlns="http://www.w3.org/2000/svg">
<path d="M34.5 13.7233C34.385 13.7042 34.2508 13.7042 34.1358 13.7233C31.4908 13.6275 29.3825 11.4616 29.3825 8.77832C29.3825 6.03748 31.5867 3.83331 34.3275 3.83331C37.0683 3.83331 39.2725 6.05665 39.2725 8.77832C39.2533 11.4616 37.145 13.6275 34.5 13.7233Z" stroke="#3851B2" stroke-width="2" stroke-linecap="round" stroke-linejoin="round"/>
<path d="M32.5258 27.6768C35.1517 28.1176 38.0458 27.6576 40.0775 26.2968C42.78 24.4951 42.78 21.5434 40.0775 19.7418C38.0267 18.3809 35.0942 17.9209 32.4683 18.3809" stroke="#3851B2" stroke-width="2" stroke-linecap="round" stroke-linejoin="round"/>
<path d="M11.4425 13.7233C11.5575 13.7042 11.6917 13.7042 11.8067 13.7233C14.4516 13.6275 16.56 11.4616 16.56 8.77832C16.56 6.03748 14.3558 3.83331 11.615 3.83331C8.87415 3.83331 6.66998 6.05665 6.66998 8.77832C6.68915 11.4616 8.79749 13.6275 11.4425 13.7233Z" stroke="#3851B2" stroke-width="2" stroke-linecap="round" stroke-linejoin="round"/>
<path d="M13.4167 27.6768C10.7908 28.1176 7.89668 27.6576 5.86501 26.2968C3.16251 24.4951 3.16251 21.5434 5.86501 19.7418C7.91584 18.3809 10.8483 17.9209 13.4742 18.3809" stroke="#3851B2" stroke-width="2" stroke-linecap="round" stroke-linejoin="round"/>
<path d="M23 28.0408C22.885 28.0216 22.7508 28.0216 22.6358 28.0408C19.9908 27.9449 17.8825 25.7791 17.8825 23.0958C17.8825 20.3549 20.0867 18.1508 22.8275 18.1508C25.5683 18.1508 27.7725 20.3741 27.7725 23.0958C27.7533 25.7791 25.645 27.9641 23 28.0408Z" stroke="#3851B2" stroke-width="2" stroke-linecap="round" stroke-linejoin="round"/>
<path d="M17.4225 34.0783C14.72 35.88 14.72 38.8316 17.4225 40.6333C20.4892 42.6841 25.5108 42.6841 28.5775 40.6333C31.28 38.8316 31.28 35.88 28.5775 34.0783C25.53 32.0466 20.4892 32.0466 17.4225 34.0783Z" stroke="#3851B2" stroke-width="2" stroke-linecap="round" stroke-linejoin="round"/>
</svg>
