<svg width="132" height="132" viewBox="0 0 132 132" fill="none" xmlns="http://www.w3.org/2000/svg">
<g filter="url(#filter0_d_26_386)">
<path d="M92 63C92 79.5685 78.5685 93 62 93C45.4315 93 32 79.5685 32 63C32 46.4315 45.4315 33 62 33C78.5685 33 92 46.4315 92 63Z" fill="url(#paint0_linear_26_386)"/>
</g>
<path d="M72.5731 61.7464C72.5956 61.7774 72.6158 61.81 72.6334 61.8439L72.7005 61.9738L72.7407 62.1038C72.7559 62.1393 72.7671 62.1764 72.7743 62.2142C72.8086 62.3815 72.8086 62.5537 72.7743 62.721C72.7671 62.7589 72.7559 62.7959 72.7407 62.8315L72.7005 62.9614L72.6334 63.0914C72.6158 63.1252 72.5956 63.1578 72.5731 63.1888C72.5251 63.2618 72.4689 63.3294 72.4054 63.3902L65.6992 69.8875C65.4426 70.1004 65.1126 70.2117 64.775 70.199C64.4375 70.1864 64.1173 70.0508 63.8784 69.8194C63.6395 69.588 63.4996 69.2777 63.4866 68.9507C63.4735 68.6237 63.5883 68.3039 63.8081 68.0553L68.2207 63.7671H51.3412C50.9855 63.7671 50.6444 63.6302 50.3928 63.3865C50.1413 63.1428 50 62.8123 50 62.4676C50 62.123 50.1413 61.7925 50.3928 61.5488C50.6444 61.3051 50.9855 61.1682 51.3412 61.1682H68.2207L63.8081 56.8865C63.6677 56.77 63.5536 56.6266 63.4731 56.4654C63.3926 56.3042 63.3474 56.1286 63.3402 55.9496C63.3331 55.7707 63.3642 55.5922 63.4317 55.4254C63.4991 55.2587 63.6014 55.1072 63.7321 54.9806C63.8628 54.854 64.0191 54.7549 64.1912 54.6895C64.3633 54.6242 64.5475 54.5941 64.7323 54.601C64.917 54.6079 65.0982 54.6517 65.2646 54.7297C65.431 54.8077 65.579 54.9182 65.6992 55.0542L72.4054 61.5515C72.4685 61.6104 72.5247 61.6757 72.5731 61.7464Z" fill="white"/>
<defs>
<filter id="filter0_d_26_386" x="0" y="0" width="132" height="132" filterUnits="userSpaceOnUse" color-interpolation-filters="sRGB">
<feFlood flood-opacity="0" result="BackgroundImageFix"/>
<feColorMatrix in="SourceAlpha" type="matrix" values="0 0 0 0 0 0 0 0 0 0 0 0 0 0 0 0 0 0 127 0" result="hardAlpha"/>
<feOffset dx="4" dy="3"/>
<feGaussianBlur stdDeviation="18"/>
<feComposite in2="hardAlpha" operator="out"/>
<feColorMatrix type="matrix" values="0 0 0 0 0.836538 0 0 0 0 0.651535 0 0 0 0 0.663281 0 0 0 0.26 0"/>
<feBlend mode="normal" in2="BackgroundImageFix" result="effect1_dropShadow_26_386"/>
<feBlend mode="normal" in="SourceGraphic" in2="effect1_dropShadow_26_386" result="shape"/>
</filter>
<linearGradient id="paint0_linear_26_386" x1="92" y1="93" x2="29.0801" y2="89.7634" gradientUnits="userSpaceOnUse">
<stop stop-color="#F42330"/>
<stop offset="1" stop-color="#EB1825"/>
</linearGradient>
</defs>
</svg>
