<svg width="78" height="72" viewBox="0 0 78 72" fill="none" xmlns="http://www.w3.org/2000/svg">
<path d="M72.4656 59.722C67.3008 65.016 59.8339 68.0392 53.7379 62.0142C46.8151 55.1754 51.5808 46.8535 55.2417 39.8509C55.9021 38.5885 54.4293 36.6379 53.0703 37.6821C52.999 37.7367 52.935 37.8007 52.8636 37.8576C52.0654 36.6403 50.5972 36.0019 49.0341 37.1196C44.0379 40.6909 34.8463 49.8694 29.6079 41.3601C25.3363 34.4193 30.8646 26.5221 33.9292 20.3809C34.6705 18.8955 33.1192 17.2486 31.7578 17.8608C30.8551 16.9234 29.3323 16.4703 28.066 17.1133C22.0056 20.1982 14.7645 28.6933 8.30503 21.0288C2.86693 14.5743 7.89403 7.2775 13.1038 2.74518C14.3368 1.6726 13.0255 -0.372888 11.5383 0.0589889C1.03768 3.11772 -3.55922 16.2378 3.13303 25.0248C8.58763 32.1862 17.5321 31.8186 24.5691 27.8011C21.7063 33.9234 21.0483 40.8168 25.7212 46.5474C31.0524 53.0896 39.1107 51.9055 45.6201 48.0186C43.4298 54.4303 44.4418 61.644 49.8892 66.9714C57.6625 74.5743 72.1473 73.6203 77.5899 63.6706C79.3338 60.4837 75.1144 57.0049 72.4656 59.722Z" fill="white"/>
</svg>
