<svg width="114" height="51" viewBox="0 0 114 51" fill="none" xmlns="http://www.w3.org/2000/svg">
<path d="M114 50C107.486 50 107.486 40.8339 101 40.8339C94.4858 40.8339 94.4858 50 88 50C81.4858 50 81.4858 40.8339 75 40.8339C68.4858 40.8339 68.4858 50 62 50C55.4858 50 55.4858 40.8339 49 40.8339C42.4858 40.8339 42.4858 50 36 50C29.4858 50 29.4858 40.8339 23 40.8339C16.4858 40.8339 16.4858 50 10 50C3.48578 50 3.48578 40.8339 -3 40.8339C-9.48584 40.8339 -9.51416 50 -16 50M114 30.0639C107.486 30.0639 107.486 20.8978 101 20.8978C94.4858 20.8978 94.4858 30.0639 88 30.0639C81.4858 30.0639 81.4858 20.8978 75 20.8978C68.4858 20.8978 68.4858 30.0639 62 30.0639C55.4858 30.0639 55.4858 20.8978 49 20.8978C42.4858 20.8978 42.4858 30.0639 36 30.0639C29.4858 30.0639 29.4858 20.8978 23 20.8978C16.4858 20.8978 16.4858 30.0639 10 30.0639C3.48578 30.0639 3.48578 20.8978 -3 20.8978C-9.48584 20.8978 -9.51416 30.0639 -16 30.0639M114 10.166C107.486 10.166 107.486 1 101 1C94.4858 1 94.4858 10.166 88 10.166C81.4858 10.166 81.4858 1 75 1C68.4858 1 68.4858 10.166 62 10.166C55.4858 10.166 55.4858 1 49 1C42.4858 1 42.4858 10.166 36 10.166C29.4858 10.166 29.4858 1 23 1C16.4858 1 16.4858 10.166 10 10.166C3.48578 10.166 3.48578 1 -3 1C-9.48584 1 -9.51416 10.166 -16 10.166" stroke="#D4DDFF" stroke-width="2" stroke-miterlimit="10"/>
</svg>
